<?xml version="1.0" standalone="no"?>
  <!DOCTYPE svg PUBLIC "-//W3C//DTD SVG 1.1//EN" "http://www.w3.org/Graphics/SVG/1.1/DTD/svg11.dtd" >
  <svg>
  <metadata>
  Created by font-carrier
  </metadata>
  <defs>
  <font id="PFDaVinciScriptPro-Inked" horiz-adv-x="1000" vert-adv-y="1000" >
    <font-face
      
      font-family="PF DaVinci Script Pro Inked"
      
      font-weight="400"
      
      font-stretch="normal"
      
      units-per-em="1000"
      
      ascent="750"
      
      descent="-250"
      
    />
      <missing-glyph />

      

      
      <glyph glyph-name="uni22" unicode="&#x22;" d="M24 505Q24 506 23.50 510Q23 514 23 516Q23 524 32 535.50Q41 547 53 547Q55 547 60 543.50Q65 540 66 538Q86 506 91.50 469.50Q97 433 97 397Q97 393 96.50 387Q96 381 94 375Q92 369 88.50 365Q85 361 78 361Q66 361 61.50 373.50Q57 386 57 394L57 396L24 505M146 385Q144 420 134 460Q124 500 102 529Q104 537 112 546.50Q120 556 129 556Q136 556 144 551.50Q152 547 159.50 540.50Q167 534 172 527Q177 520 177 515L183 405Q183 399 174 389Q165 379 156 379Q148 379 146 385Z"  horiz-adv-x="209" vert-adv-y="1000"  />

      
      <glyph glyph-name="uni23" unicode="&#x23;" d="M324-38Q323-32 321.50-20.50Q320-9 317 2.50Q314 14 309.50 22.50Q305 31 298 31Q289 31 282 26Q275 21 264 21Q243 21 228 35Q213 49 202.50 65.50Q192 82 185.50 96Q179 110 175 110L66 110Q63 110 58 111Q53 112 48 114Q43 116 39.50 119Q36 122 36 126Q36 132 49 135Q62 138 80.50 140.50Q99 143 120 144.50Q141 146 157 148Q166 149 171 155Q176 161 178.50 169Q181 177 181.50 185.50Q182 194 182 200Q182 225 149 225Q125 225 102.50 219Q80 213 57 213Q45 213 31.50 217Q18 221 18 237Q18 242 19 244.50Q20 247 26 250Q46 254 74 260.50Q102 267 127 272.50Q152 278 169.50 282Q187 286 186 286Q192 288 196 305.50Q200 323 205.50 343Q211 363 218.50 379Q226 395 238 395Q246 395 249 389Q252 383 252 375Q252 364 247.50 354Q243 344 243 333Q243 317 248 310Q253 303 260.50 300.50Q268 298 276.50 299Q285 300 292 300Q300 300 308 301.50Q316 303 320 311Q328 331 335.50 352.50Q343 374 360 388L362 388Q369 388 372 383Q375 378 375 371Q375 371 374 367Q373 363 371 357Q369 351 367 344.50Q365 338 364 333Q362 322 376 317Q390 312 411 310Q432 308 457.50 307Q483 306 505 304Q527 302 541.50 296.50Q556 291 556 280Q556 267 549 260Q542 253 532 249.50Q522 246 510.50 245.50Q499 245 489 245Q476 245 464 247.50Q452 250 438 250Q428 250 414 248.50Q400 247 387 242.50Q374 238 365 229.50Q356 221 356 207Q356 187 367 177.50Q378 168 396 166Q433 166 463.50 162Q494 158 533 158Q550 158 565 158.50Q580 159 586 159Q586 158 589 155.50Q592 153 593 151Q593 133 581 125Q569 117 548.50 113.50Q528 110 502 109.50Q476 109 449.50 107Q423 105 398.50 99Q374 93 357 79Q357 57 360.50 36Q364 15 364-7Q364-12 363.50-19Q363-26 360.50-33Q358-40 353.50-44.50Q349-49 342-49Q329-49 324-38Z"  horiz-adv-x="606" vert-adv-y="1000"  />

      
      <glyph glyph-name="uni24" unicode="&#x24;" d="M230-110Q230-128 240-147Q250-166 250-186Q250-195 247.50-202Q245-209 234-209Q221-209 214-196.50Q207-184 204-165Q201-146 199.50-124Q198-102 197-83Q196-64 193.50-51.50Q191-39 185-38Q147-40 115.50-35Q84-30 40-18Q37-17 33-7.50Q29 2 29 4Q29 14 37.50 19Q46 24 54 24Q61 24 63 21.50Q65 19 66 15.50Q67 12 68 8Q69 4 74 1Q83-4 94-5.50Q105-7 116-7L148-7Q166-7 180-2Q194 3 196 24Q199 53 201.50 88Q204 123 204 152Q204 162 201 167Q198 172 189 172Q171 175 142.50 176Q114 177 87 182Q60 187 40.50 199.50Q21 212 21 238Q21 256 35 275Q49 294 69 311.50Q89 329 110.50 342.50Q132 356 147 363Q161 370 176 375Q191 380 203.50 385Q216 390 224.50 396.50Q233 403 234 412L242 511Q242 516 247 521.50Q252 527 257 527Q264 527 267 524Q270 521 269 511Q269 509 268 502.50Q267 496 266.50 488.50Q266 481 265.50 474Q265 467 265 465Q265 452 267 434Q269 416 276 412Q276 412 277.50 413Q279 414 288 416.50Q297 419 317 421.50Q337 424 375 427Q391 427 409 424.50Q427 422 442.50 415Q458 408 468 395Q478 382 478 362Q478 334 463 310Q448 286 417 286Q406 286 395 290Q384 294 373 294Q368 294 358.50 291Q349 288 338 284Q327 280 315 276Q303 272 292 271Q281 263 273 246Q265 229 265 215L265 214Q265 213 268 210.50Q271 208 272 207Q294 205 322 201.50Q350 198 375.50 188.50Q401 179 418.50 162Q436 145 436 115Q436 91 421 72Q406 53 385 38.50Q364 24 340.50 13.50Q317 3 299-3Q287-8 276-10Q265-12 256-16Q247-20 240.50-27.50Q234-35 231-49Q231-69 230.50-85.50Q230-102 230-110M277 165Q263 165 254 145Q245 125 240 99.50Q235 74 233 49.50Q231 25 231 15Q246 15 273 24Q300 33 326 47.50Q352 62 371 80.50Q390 99 390 117Q390 130 375.50 139.50Q361 149 342 154.50Q323 160 304 162.50Q285 165 277 165M94 241Q94 234 107 229.50Q120 225 136.50 222Q153 219 168.50 218Q184 217 189 217Q197 217 206.50 218.50Q216 220 216 229L216 275Q216 283 205.50 288.50Q195 294 189 294Q180 294 164.50 290Q149 286 133 278.50Q117 271 105.50 261.50Q94 252 94 241Z"  horiz-adv-x="495" vert-adv-y="1000"  />

      
      <glyph glyph-name="uni25" unicode="&#x25;" d="M160-46Q161-3 168.50 38Q176 79 186.50 117Q197 155 209.50 189Q222 223 233 252Q249 296 277 341Q305 386 334 424Q342 435 354.50 437Q367 439 377 441Q412 433 421 399Q424 385 423 372.50Q422 360 411 349Q391 332 368.50 318Q346 304 329 284Q293 243 275.50 207Q258 171 247 134.50Q236 98 226 58Q216 18 196-31Q192-41 184-48Q176-55 165-50Q164-50 161.50-49.50Q159-49 160-46M283 36Q283 53 293 70.50Q303 88 318 101.50Q333 115 351.50 123.50Q370 132 387 132Q387 120 381.50 114.50Q376 109 369 106.50Q362 104 356.50 101Q351 98 351 90Q358 90 363.50 91Q369 92 375 92Q391 92 398.50 81.50Q406 71 406 57Q406 43 397.50 33Q389 23 376 16.50Q363 10 349 7Q335 4 323 4Q308 4 295.50 11Q283 18 283 36M61 301Q61 317 73 336Q85 355 102.50 371.50Q120 388 139.50 399.50Q159 411 175 411Q181 411 181 404Q181 401 169.50 394Q158 387 144.50 375.50Q131 364 119.50 349.50Q108 335 108 317Q127 317 132.50 322.50Q138 328 139.50 336.50Q141 345 143 355.50Q145 366 159 376Q164 379 175.50 384.50Q187 390 195 390Q208 390 217.50 379.50Q227 369 227 356Q227 340 212 324.50Q197 309 176.50 297Q156 285 134 277.50Q112 270 98 270Q84 270 72.50 278.50Q61 287 61 301Z"  horiz-adv-x="483" vert-adv-y="1000"  />

      
      <glyph glyph-name="uni26" unicode="&#x26;" d="M38 63Q38 93 47.50 120.50Q57 148 72 173Q87 198 105.50 221Q124 244 143 265Q144 266 149 271Q154 276 159.50 282Q165 288 170 292.50Q175 297 176 299Q181 305 181 312L181 316Q176 339 172 360.50Q168 382 168 406Q168 476 202 520.50Q236 565 307 565Q339 565 357 548.50Q375 532 375 500Q375 477 365.50 454.50Q356 432 342.50 411Q329 390 313.50 371Q298 352 286 337Q280 329 272.50 320.50Q265 312 265 301Q265 288 274.50 275Q284 262 296.50 251Q309 240 322.50 230.50Q336 221 345 215Q346 215 348 214.50Q350 214 351 214Q359 214 362.50 216Q366 218 374 223Q394 235 414.50 249Q435 263 457 275.50Q479 288 501.50 296Q524 304 548 304Q557 304 572.50 302.50Q588 301 603 296.50Q618 292 629 284.50Q640 277 640 265Q640 253 630 248Q620 243 610 240Q606 240 594.50 239.50Q583 239 570.50 238.50Q558 238 546 237.50Q534 237 530 236Q525 236 507 228Q489 220 468.50 210Q448 200 432 189.50Q416 179 416 173Q416 165 432 147.50Q448 130 467 108.50Q486 87 502 64.50Q518 42 518 25Q518 17 511 6Q504-5 495-5Q494-5 493-4Q485 1 482.50 6.50Q480 12 479 17.50Q478 23 476.50 29.50Q475 36 471 43Q463 55 451.50 69Q440 83 425 95Q410 107 393.50 115Q377 123 360 123Q343 123 330.50 110.50Q318 98 307 89Q294 78 269.50 57.50Q245 37 217 17Q189-3 161.50-18Q134-33 116-33Q97-33 82.50-24Q68-15 58-1Q48 13 43 30Q38 47 38 63M168 190Q168 174 182.50 167Q197 160 209 160Q218 160 227.50 162.50Q237 165 245.50 170Q254 175 259.50 182.50Q265 190 265 200L265 207Q262 211 255.50 217.50Q249 224 242 230Q235 236 228 240.50Q221 245 215 245Q209 245 201 238Q193 231 185.50 222Q178 213 173 204Q168 195 168 190Z"  horiz-adv-x="647" vert-adv-y="1000"  />

      
      <glyph glyph-name="uni27" unicode="&#x27;" d="M78 381Q76 414 67 452Q58 490 38 519Q37 520 37 521Q37 522 36 523L34 525Q36 533 44 542.50Q52 552 61 552Q68 552 76 547.50Q84 543 91.50 536.50Q99 530 104 523Q109 516 109 510L116 401Q116 395 106.50 385Q97 375 88 375Q82 375 78 381Z"  horiz-adv-x="155" vert-adv-y="1000"  />

      
      <glyph glyph-name="uni28" unicode="&#x28;" d="M67 342Q80 392 96 438Q112 484 130.50 518.50Q149 553 169 574Q189 595 210 595Q219 595 231 594.50Q243 594 253.50 591Q264 588 270.50 581.50Q277 575 276 563Q275 555 272.50 548Q270 541 264 540Q255 540 253 539Q251 538 251 537Q251 536 249 534.50Q247 533 238 533Q228 533 217 521.50Q206 510 196.50 496Q187 482 180.50 469.50Q174 457 173 453Q171 448 162 425Q153 402 142 370Q119 305 104.50 248.50Q90 192 90 129Q90 91 93.50 50.50Q97 10 107.50-28Q118-66 137.50-99Q157-132 188-153Q202-162 217.50-170.50Q233-179 251-184Q269-190 289-193Q300-195 304.50-198Q309-201 310.50-203.50Q312-206 313-208.50Q314-211 317-213Q320-215 316-216Q312-217 305.50-218Q299-219 292-218.50Q285-218 282-215Q233-209 196-192.50Q159-176 130-146Q89-102 69-39.50Q49 23 44.50 90.50Q40 158 47 224Q54 290 67 342Z"  horiz-adv-x="287" vert-adv-y="1000"  />

      
      <glyph glyph-name="uni29" unicode="&#x29;" d="M275 54Q264 4 247.50-43.50Q231-91 211.50-127.50Q192-164 171-186Q150-208 129-208Q124-208 118-208.50Q112-209 106-209Q93-209 83.50-205Q74-201 74-187Q74-175 81-167Q88-159 96.50-155Q105-151 113-149.50Q121-148 123-148Q133-148 143.50-137Q154-126 163-112Q172-98 178.50-85.50Q185-73 186-69Q188-64 196-41.50Q204-19 214 13Q225 47 231.50 78Q238 109 242 139Q246 169 247 200Q248 231 248 266Q248 318 239.50 367Q231 416 208.50 457.50Q186 499 147 529Q108 559 46 573Q35 576 30 578.50Q25 581 23.50 583.50Q22 586 21 588.50Q20 591 17 593Q16 594 16 595Q16 597 21.50 598Q27 599 34 599Q39 599 44.50 598Q50 597 52 595Q124 584 171.50 549Q219 514 247 465Q275 416 286 357Q297 298 297 240Q297 190 290.50 142.50Q284 95 275 54Z"  horiz-adv-x="333" vert-adv-y="1000"  />

      
      <glyph glyph-name="uni2a" unicode="&#x2a;" d="M87 324Q87 336 90.50 347.50Q94 359 98.50 369.50Q103 380 107 391Q111 402 111 414Q94 414 81 407.50Q68 401 52 401Q49 401 45.50 401.50Q42 402 42 407Q42 412 50.50 418Q59 424 63 426Q66 427 73.50 431Q81 435 89.50 438.50Q98 442 105.50 445.50Q113 449 116 450Q119 450 119 454Q119 461 114 466Q109 471 103 475.50Q97 480 92 485.50Q87 491 87 499Q87 509 95.50 518Q104 527 114 527Q119 527 124.50 523Q130 519 133 517Q133 517 137 515Q138 514 140 514Q145 515 148.50 524Q152 533 155 544.50Q158 556 162.50 567Q167 578 175 583Q182 581 186 576Q181 560 179.50 548Q178 536 178 522L178 510L182 507L242 566Q249 573 255 573Q265 573 266 566Q267 566 265.50 563.50Q264 561 263 559L203 478Q202 478 202 477L202 475Q202 474 203 471Q204 468 206 468L322 468Q325 468 325.50 465.50Q326 463 326 461Q326 450 310.50 447Q295 444 276.50 442Q258 440 242.50 437Q227 434 227 424L227 422Q233 416 244.50 405Q256 394 256 382Q256 373 249 373Q240 373 233 378.50Q226 384 219.50 391Q213 398 205.50 403.50Q198 409 189 409Q181 409 178 399.50Q175 390 175 384Q175 380 175 369.50Q175 359 175 347Q175 335 175 325Q175 315 175 311Q170 307 165 307Q157 307 154.50 315.50Q152 324 150.50 333.50Q149 343 146 351.50Q143 360 135 360Q127 360 124.50 348.50Q122 337 120 323Q118 309 115 297.50Q112 286 104 286Q98 286 94.50 290.50Q91 295 89.50 301Q88 307 87.50 313.50Q87 320 87 324Z"  horiz-adv-x="368" vert-adv-y="1000"  />

      
      <glyph glyph-name="uni2b" unicode="&#x2b;" d="M171 68Q169 71 167 80Q165 89 162 98.50Q159 108 156.50 116.50Q154 125 153 128Q150 134 149.50 144Q149 154 147 164Q145 174 141 182Q137 190 128 193Q125 193 116 193.50Q107 194 97.50 194.50Q88 195 79 196Q70 197 67 197Q59 198 48.50 204Q38 210 38 219Q38 227 47 239Q56 251 69 253L107 258L112 258Q114 258 122 260Q130 262 133 262Q146 266 150.50 285Q155 304 157.50 325.50Q160 347 165.50 364.50Q171 382 186 382Q192 382 195 376.50Q198 371 198 364Q198 341 205.50 325Q213 309 218 292Q219 284 222 281.50Q225 279 230 276Q265 272 288.50 261Q312 250 320 247Q326 245 333 240Q340 235 346.50 227.50Q353 220 357.50 211.50Q362 203 362 194Q362 186 360.50 183.50Q359 181 351 181Q328 181 306.50 187.50Q285 194 262 194Q245 194 229 188.50Q213 183 209 160Q206 139 203 120.50Q200 102 200 82L200 68Q198 62 194.50 60.50Q191 59 186 59Q181 59 177 60.50Q173 62 171 68Z"  horiz-adv-x="400" vert-adv-y="1000"  />

      
      <glyph glyph-name="uni2c" unicode="&#x2c;" d="M72-17Q60-14 53.50-6.50Q47 1 44 10.50Q41 20 41 30Q41 40 42 48Q43 54 48 60Q53 66 60 71.50Q67 77 75 80Q83 83 90 83Q99 83 114 75Q129 67 134 42Q137 22 130-6Q123-34 110.50-57.50Q98-81 82.50-93Q67-105 54-93Q51-88 56.50-83Q62-78 67.50-70.50Q73-63 76-50.50Q79-38 72-17Z"  horiz-adv-x="170" vert-adv-y="1000"  />

      
      <glyph glyph-name="uni2d" unicode="&#x2d;" d="M47 187Q47 193 55.50 201Q64 209 69 213Q72 213 79 213Q86 213 94 213.50Q102 214 109 214Q116 214 119 214Q124 214 132.50 214Q141 214 149.50 213.50Q158 213 164 213Q170 213 170 213Q178 213 193 212.50Q208 212 223 209.50Q238 207 249 202Q260 197 260 189Q260 181 256.50 177Q253 173 242 170Q223 168 207.50 167.50Q192 167 177.50 166Q163 165 149 165Q135 165 118 165Q112 165 100 165Q88 165 76 166.50Q64 168 55.50 172.50Q47 177 47 187Z"  horiz-adv-x="300" vert-adv-y="1000"  />

      
      <glyph glyph-name="uni2e" unicode="&#x2e;" d="M50 20Q47 30 48 43.50Q49 57 55 68.50Q61 80 73 87.50Q85 95 105 93Q119 92 128.50 82Q138 72 140 63Q146 39 132.50 21Q119 3 89 1Q74 1 64 3.50Q54 6 50 20Z"  horiz-adv-x="186" vert-adv-y="1000"  />

      
      <glyph glyph-name="uni2f" unicode="&#x2f;" d="M288 456Q260 414 229.50 362.50Q199 311 169 253Q139 195 112 133.50Q85 72 63 11Q48-34 32-83.50Q16-133 6-167Q4-175-3-168.50Q-10-162-10-156Q-8-129-2-98Q4-67 12-42Q15-32 24-3.50Q33 25 44 57.50Q55 90 64.50 119.50Q74 149 79 161Q91 197 114 255.50Q137 314 164 376.50Q191 439 217.50 494.50Q244 550 263 580Q268 587 270.50 590Q273 593 278 592Q288 592 295 583.50Q302 575 306.50 563Q311 551 312.50 537.50Q314 524 314 513Q313 500 303.50 483Q294 466 288 456Z"  horiz-adv-x="288" vert-adv-y="1000"  />

      
      <glyph glyph-name="uni30" unicode="&#x30;" d="M47 57Q47 60 46.50 72Q46 84 46 87Q46 126 57 160.50Q68 195 86 226.50Q104 258 127.50 287.50Q151 317 177 344Q188 356 198 372.50Q208 389 220 404Q232 419 248.50 429.50Q265 440 289 440Q317 440 333.50 426Q350 412 358.50 391Q367 370 369 346Q371 322 371 302Q371 285 366 268Q361 251 364 234Q356 216 343 190Q330 164 312 136.50Q294 109 272.50 82Q251 55 227.50 33.50Q204 12 178.50-1Q153-14 128-14Q94-14 74.50 8Q55 30 47 57M108 88Q113 81 119.50 79.50Q126 78 134 78Q161 78 191 97Q221 116 245.50 144Q270 172 286 202.50Q302 233 302 256Q302 267 292.50 272.50Q283 278 273 278Q261 278 251.50 273Q242 268 233.50 262.50Q225 257 216 252Q207 247 195 247Q183 247 175.50 253.50Q168 260 157 260Q144 260 134.50 240Q125 220 119 194.50Q113 169 110 144.50Q107 120 107 111Q107 108 107.50 99Q108 90 108 88Z"  horiz-adv-x="432" vert-adv-y="1000"  />

      
      <glyph glyph-name="uni31" unicode="&#x31;" d="M66 19Q66 48 68.50 77.50Q71 107 75 135Q78 153 81.50 171.50Q85 190 88 208.50Q91 227 93 243.50Q95 260 94 273Q93 289 86.50 287.50Q80 286 72.50 281.50Q65 277 59 276Q53 275 53 291Q53 298 64.50 316.50Q76 335 90 355Q104 375 116 392Q128 409 128 413Q129 419 136 424Q143 429 152.50 433Q162 437 171.50 439Q181 441 187 441Q205 441 213.50 429.50Q222 418 222 404Q222 395 218.50 386Q215 377 210.50 368.50Q206 360 202.50 351.50Q199 343 199 334Q199 322 201 310Q203 298 203 286Q203 264 195.50 243Q188 222 177 202.50Q166 183 153.50 163.50Q141 144 131 125Q128 119 123.50 99.50Q119 80 113 59.50Q107 39 98.50 23Q90 7 77 7Q71 7 68.50 10.50Q66 14 66 19Z"  horiz-adv-x="273" vert-adv-y="1000"  />

      
      <glyph glyph-name="uni32" unicode="&#x32;" d="M335 40Q293 40 258 33.50Q223 27 189.50 19.50Q156 12 121 6Q86 0 44 0Q27 0 15 19Q3 38 3 57Q3 97 30 128.50Q57 160 95.50 185.50Q134 211 177 233Q220 255 253 276Q283 295 289.50 313Q296 331 285.50 345Q275 359 250.50 367.50Q226 376 195 376Q183 376 175.50 376Q168 376 161 375.50Q154 375 146 374Q138 373 126 371Q124 371 115 369.50Q106 368 95 366.50Q84 365 75 364Q66 363 65 363L61 363Q51 363 51 373Q51 384 69.50 392.50Q88 401 114.50 406Q141 411 169 414Q197 417 217 417Q234 417 260.50 413.50Q287 410 311.50 401Q336 392 354 377.50Q372 363 372 341Q372 313 356.50 291.50Q341 270 318.50 252.50Q296 235 269 219.50Q242 204 219.50 188Q197 172 181.50 153.50Q166 135 166 112Q166 104 172.50 98.50Q179 93 187.50 90Q196 87 205.50 85.50Q215 84 221 84Q241 84 254 84Q267 84 278 83.50Q289 83 301 82Q313 81 331 80Q394 76 449.50 58Q505 40 561 4Q566 2 567-1.50Q568-5 568-10Q568-19 565-19.50Q562-20 554-20Q553-20 548.50-19Q544-18 542-16Q491 5 440 22.50Q389 40 335 40Z"  horiz-adv-x="586" vert-adv-y="1000"  />

      
      <glyph glyph-name="uni33" unicode="&#x33;" d="M-81 30Q-81 44-72.50 55.50Q-64 67-49 67Q-38 67-33.50 63.50Q-29 60-29 49Q-29 48-29.50 47Q-30 46-30 44L-30 40Q-31 38-35.50 33.50Q-40 29-41 29Q-43 23-35.50 20Q-28 17-27 17Q-25 16-14.50 16Q-4 16 1 16Q14 16 37 20.50Q60 25 87 33Q114 41 142 53Q170 65 192.50 81Q215 97 229.50 116Q244 135 244 158Q244 171 236.50 177Q229 183 218 185.50Q207 188 195 188Q183 188 174 190Q151 193 125.50 198Q100 203 77 202Q71 203 61.50 206Q52 209 43.50 213Q35 217 29 222.50Q23 228 23 236Q23 283 67 305L172 348Q179 351 188.50 359Q198 367 198 375Q198 381 191.50 386Q185 391 176 394.50Q167 398 158.50 399.50Q150 401 146 401Q143 401 134 401.50Q125 402 115 402Q105 402 96 401.50Q87 401 84 401Q76 399 74 402.50Q72 406 72 411Q72 420 81 424.50Q90 429 102 431Q114 433 126 433Q138 433 143 433Q155 433 173.50 431Q192 429 208.50 423Q225 417 237 405.50Q249 394 249 375Q249 361 241 348.50Q233 336 224 329L155 281Q152 279 151.50 275Q151 271 151 268Q151 259 161 255Q171 251 186.50 249Q202 247 220 243.50Q238 240 254 231.50Q270 223 281.50 206Q293 189 295 160Q296 151 292 140Q288 129 281.50 118.50Q275 108 267.50 98.50Q260 89 254 84Q231 64 200.50 46.50Q170 29 136.50 16Q103 3 69-4Q35-11 7-11Q-4-11-19-11Q-34-11-47.50-7Q-61-3-71 5Q-81 13-81 30Z"  horiz-adv-x="318" vert-adv-y="1000"  />

      
      <glyph glyph-name="uni34" unicode="&#x34;" d="M49-71Q49-53 49.50-41.50Q50-30 57-12Q60-4 68 15Q76 34 84.50 55.50Q93 77 101 95.50Q109 114 112 122Q112 123 114.50 135.50Q117 148 119 155L119 159Q109 160 93 162Q77 164 62 169Q47 174 35.50 183.50Q24 193 24 209Q23 235 36 263.50Q49 292 68.50 318Q88 344 110 366.50Q132 389 149 404Q154 408 169 421.50Q184 435 201.50 449Q219 463 235.50 474Q252 485 259 485Q266 485 270 480.50Q274 476 276 469.50Q278 463 278 456Q278 449 278 445Q278 429 274 409Q270 389 265.50 368Q261 347 257.50 327.50Q254 308 254 292Q254 280 265 280Q276 280 282.50 281.50Q289 283 295 285.50Q301 288 307 291Q313 294 323 298Q343 306 357 311.50Q371 317 384 320Q397 323 411.50 324.50Q426 326 448 326Q456 326 467.50 325Q479 324 490 320.50Q501 317 508.50 310.50Q516 304 516 293Q516 267 491 267L483 267Q481 267 475 268.50Q469 270 462 271.50Q455 273 449 274.50Q443 276 441 276Q416 276 377 265Q338 254 299 236.50Q260 219 228 196.50Q196 174 186 150L119-3Q116-22 109.50-41Q103-60 103-79Q103-92 105-104Q107-116 107-128Q107-135 103-144Q99-153 91-153Q77-153 69-143.50Q61-134 56.50-120.50Q52-107 50.50-93.50Q49-80 49-71M135 295Q135 284 142 283.50Q149 283 157 283Q169 283 179.50 289.50Q190 296 197 306Q204 316 208 328Q212 340 212 352Q212 356 211.50 361.50Q211 367 205 367Q196 367 184 359.50Q172 352 161 340.50Q150 329 142.50 316.50Q135 304 135 295Z"  horiz-adv-x="494" vert-adv-y="1000"  />

      
      <glyph glyph-name="uni35" unicode="&#x35;" d="M-153-16Q-153-2-143 8Q-133 18-118.50 25Q-104 32-89 35Q-74 38-65 38Q-58 38-52.50 36Q-47 34-47 27Q-47 18-53.50 14Q-60 10-68 6.50Q-76 3-83.50-1Q-91-5-93-12Q-96-21-91-26Q-86-31-76-31Q-55-31-20.50-23Q14-15 52.50 0Q91 15 130.50 35.50Q170 56 202 80Q234 104 254 132Q274 160 274 189Q274 212 259.50 220Q245 228 223.50 229.50Q202 231 176.50 231Q151 231 129.50 237Q108 243 93.50 260Q79 277 79 313Q79 321 83 334.50Q87 348 93.50 361.50Q100 375 108 386.50Q116 398 124 402Q153 401 177 400Q201 399 222 403Q243 407 262 417.50Q281 428 301 450Q312 458 317.50 451Q323 444 323 432Q323 407 309 396Q295 385 278.50 379.50Q262 374 248 369Q234 364 234 351L234 344Q234 342 235 340Q240 323 250 312Q260 301 271.50 293Q283 285 295.50 278Q308 271 318 262Q328 253 334.50 241Q341 229 341 210Q341 176 316.50 142.50Q292 109 253 79Q214 49 165 23.50Q116-2 68-21Q20-40-23-50.50Q-66-61-94-61Q-117-61-135-51.50Q-153-42-153-16Z"  horiz-adv-x="445" vert-adv-y="1000"  />

      
      <glyph glyph-name="uni36" unicode="&#x36;" d="M10 73Q10 98 17.50 123Q25 148 36 172Q47 196 61 219Q75 242 88 262Q108 293 126.50 318Q145 343 165 365.50Q185 388 209 409Q233 430 264 454Q268 457 271 457.50Q274 458 279 458Q290 458 290.50 450Q291 442 285 436Q253 404 227.50 377Q202 350 180 322Q158 294 138 262.50Q118 231 99 190L94 176Q94 169 98.50 167Q103 165 108 165Q117 165 120 170.50Q123 176 124 183.50Q125 191 126.50 199.50Q128 208 134 215Q136 217 144.50 220Q153 223 163 226Q173 229 182 231Q191 233 194 233Q225 233 241.50 209Q258 185 258 156Q258 138 251.50 123.50Q245 109 235 97Q225 85 213 74.50Q201 64 190 53Q167 24 141.50 6.50Q116-11 78-11Q61-11 48.50-4Q36 3 27.50 15Q19 27 14.50 42Q10 57 10 73Z"  horiz-adv-x="296" vert-adv-y="1000"  />

      
      <glyph glyph-name="uni37" unicode="&#x37;" d="M22-84Q22-58 31-33Q40-8 49 16Q56 38 64 55.50Q72 73 80.50 89.50Q89 106 97.50 123.50Q106 141 115 162Q131 198 147 236.50Q163 275 163 316Q163 326 161 331Q159 336 151 345Q150 345 144.50 345.50Q139 346 137 346Q138 346 130.50 344.50Q123 343 111 340Q99 337 86 333Q73 329 64 324Q52 318 44.50 310.50Q37 303 29.50 296.50Q22 290 14 285.50Q6 281-7 281Q-20 281-23 291.50Q-26 302-26 308Q-26 318-24.50 329.50Q-23 341-18.50 351.50Q-14 362-7 369Q0 376 12 377Q14 377 26.50 376.50Q39 376 42 377Q68 385 92 394.50Q116 404 140 412Q164 420 189.50 425.50Q215 431 244 431Q264 431 270 422.50Q276 414 276 392Q276 369 240 308Q214 263 192.50 225Q171 187 152.50 149Q134 111 117 70.50Q100 30 82-21Q80-28 75.50-42Q71-56 71-58Q71-61 70.50-68Q70-75 70-83.50Q70-92 70.50-100Q71-108 71-111Q66-126 53-126Q38-126 30-112.50Q22-99 22-84Z"  horiz-adv-x="316" vert-adv-y="1000"  />

      
      <glyph glyph-name="uni38" unicode="&#x38;" d="M-31 42Q-31 44-31.50 51.50Q-32 59-32 61Q-32 85-19.50 102Q-7 119 12 133Q31 147 52 159Q73 171 90 183Q95 187 103.50 194.50Q112 202 112 204L112 225Q92 247 79 264Q66 281 66 310Q66 331 81 352Q96 373 118 390Q140 407 165.50 417.50Q191 428 212 428L214 428Q218 428 218 425L218 423Q218 418 207.50 413.50Q197 409 185 404Q173 399 162.50 393Q152 387 152 380Q152 373 160 372.50Q168 372 172 372Q176 372 183 371.50Q190 371 196.50 370.50Q203 370 208 369.50Q213 369 214 369L286 351Q300 345 310 333.50Q320 322 320 305Q320 286 307 272.50Q294 259 281 246Q284 235 294.50 223.50Q305 212 316.50 200Q328 188 337 176.50Q346 165 346 154Q346 128 325 106.50Q304 85 274.50 68Q245 51 215 39Q185 27 168 20Q138 8 106.50 6Q75 4 42 4Q22 4-2 12.50Q-26 21-31 42M115 314Q115 302 124 292Q133 282 146 274.50Q159 267 173 263Q187 259 198 259Q207 259 219.50 262Q232 265 243.50 270.50Q255 276 263 284Q271 292 271 303Q271 315 252 323Q233 331 208.50 335.50Q184 340 161 342Q138 344 130 344Q119 344 117 333Q115 322 115 314M29 73Q29 68 35 64Q41 60 49 57.50Q57 55 65 53.50Q73 52 78 52Q83 52 92.50 52Q102 52 111.50 53.50Q121 55 129 58.50Q137 62 138 70Q139 79 137 86.50Q135 94 142 102Q146 107 152.50 110Q159 113 165 116Q171 119 175.50 123Q180 127 180 134Q180 139 175 141.50Q170 144 163.50 145.50Q157 147 150.50 147Q144 147 141 147Q131 147 112.50 139.50Q94 132 75.50 120.50Q57 109 43 96Q29 83 29 73Z"  horiz-adv-x="384" vert-adv-y="1000"  />

      
      <glyph glyph-name="uni39" unicode="&#x39;" d="M7-23Q7-21 7-17Q7-13 9-11Q11-11 13-10Q15-10 16-9.50Q17-9 18-9Q30-3 38 7.50Q46 18 54 27Q71 49 85 70.50Q99 92 109 115Q119 138 125 164.50Q131 191 132 223Q117 223 102.50 223.50Q88 224 76.50 229.50Q65 235 57.50 246Q50 257 49 278Q48 306 62.50 333.50Q77 361 100.50 383Q124 405 151.50 418.50Q179 432 205 432Q232 432 250 416Q268 400 267 371Q266 348 258 325Q250 302 233 267Q206 211 178.50 164Q151 117 116 67Q113 63 102.50 49.50Q92 36 80 21Q68 6 57.50-7.50Q47-21 44-24Q35-35 23-35Q18-35 12.50-33Q7-31 7-23M124 328Q123 322 127 318.50Q131 315 136 315Q139 315 142.50 321Q146 327 151.50 334.50Q157 342 164 348Q171 354 181 354Q189 354 193.50 348.50Q198 343 206 343Q216 343 218.50 350.50Q221 358 221 366Q220 380 209 388Q198 396 187 396Q181 396 178.50 392.50Q176 389 174.50 384.50Q173 380 171 376Q169 372 166 371Q164 370 156 369Q148 368 147 366Q144 365 137.50 358Q131 351 129 347Q127 345 125 337.50Q123 330 124 328Z"  horiz-adv-x="297" vert-adv-y="1000"  />

      
      <glyph glyph-name="uni3a" unicode="&#x3a;" d="M44 172Q41 182 42 195Q43 208 49 220Q55 232 67 239.50Q79 247 99 245Q113 243 122.50 233.50Q132 224 134 215Q141 191 127 172.50Q113 154 83 153Q68 152 58 155Q48 158 44 172M46 10Q43 20 44 33.50Q45 47 51.50 58.50Q58 70 70 77.50Q82 85 102 83Q116 82 123 71Q130 60 132 51Q138 27 127 10Q116-7 85-9Q71-9 60.50-6.50Q50-4 46 10Z"  horiz-adv-x="178" vert-adv-y="1000"  />

      
      <glyph glyph-name="uni3b" unicode="&#x3b;" d="M44 172Q41 182 42 195Q43 208 49 220Q55 232 67 239.50Q79 247 99 245Q113 243 122.50 233.50Q132 224 134 215Q141 191 127 172.50Q113 154 83 153Q68 152 58 155Q48 158 44 172M72-17Q60-14 53.50-6.50Q47 1 44 10.50Q41 20 41 30Q41 40 42 48Q43 54 48 60Q53 66 60 71.50Q67 77 75 80Q83 83 90 83Q99 83 114 75Q129 67 134 42Q137 22 130-6Q123-34 110.50-57.50Q98-81 82.50-93Q67-105 54-93Q51-88 56.50-83Q62-78 67.50-70.50Q73-63 76-50.50Q79-38 72-17Z"  horiz-adv-x="172" vert-adv-y="1000"  />

      
      <glyph glyph-name="uni3c" unicode="&#x3c;" d="M307 35Q307 27 299.50 17Q292 7 283 7Q272 7 266 11.50Q260 16 256 22.50Q252 29 248 36Q244 43 237 49Q214 66 180 75.50Q146 85 114.50 97Q83 109 60.50 129.50Q38 150 38 190Q38 213 54.50 235.50Q71 258 97 277.50Q123 297 155.50 313.50Q188 330 220 342.50Q252 355 280.50 361.50Q309 368 328 368Q330 368 335.50 368Q341 368 346.50 367Q352 366 356.50 363.50Q361 361 361 356Q361 347 342 336Q323 325 294 313Q265 301 232 287Q199 273 170 257Q141 241 122 223Q103 205 103 185Q103 167 118 156Q133 145 156 137Q179 129 205 122Q231 115 254 104.50Q277 94 292 77.50Q307 61 307 35Z"  horiz-adv-x="400" vert-adv-y="1000"  />

      
      <glyph glyph-name="uni3d" unicode="&#x3d;" d="M285 108Q246 106 206.50 104Q167 102 129 102Q119 102 106.50 105Q94 108 82.50 115Q71 122 63.50 131.50Q56 141 56 155Q56 173 73 173Q85 173 96.50 164.50Q108 156 123 157L301 162Q313 162 328.50 157Q344 152 344 135Q344 127 326 118Q308 109 285 108M115 282Q153 281 192.50 277.50Q232 274 270 274Q280 274 292.50 273.50Q305 273 316 269.50Q327 266 335 258.50Q343 251 343 238Q343 220 326 220Q314 220 302.50 224Q291 228 276 228Q232 226 212 225.50Q192 225 178.50 224.50Q165 224 149 224Q133 224 98 223Q85 222 70 227.50Q55 233 55 250Q55 253 57 258.50Q59 264 65.50 269.50Q72 275 84 278.50Q96 282 115 282Z"  horiz-adv-x="400" vert-adv-y="1000"  />

      
      <glyph glyph-name="uni3e" unicode="&#x3e;" d="M95 34Q95 60 110 76Q125 92 147 102Q169 112 195 119Q221 126 243 134Q265 142 280 152.50Q295 163 295 181Q295 201 276 218.50Q257 236 229 252Q201 268 168 281.50Q135 295 107 307Q79 319 60 329.50Q41 340 41 349Q41 354 45.50 356.50Q50 359 55.50 359.50Q61 360 66.50 360Q72 360 74 360Q92 360 120.50 353.50Q149 347 180.50 335Q212 323 243.50 307Q275 291 300.50 271.50Q326 252 342 230.50Q358 209 358 186Q358 147 336 126.50Q314 106 283 94Q252 82 218.50 73Q185 64 163 47Q156 42 152.50 35Q149 28 144.50 22Q140 16 134 11.50Q128 7 117 7Q109 7 102 16.50Q95 26 95 34Z"  horiz-adv-x="400" vert-adv-y="1000"  />

      
      <glyph glyph-name="uni3f" unicode="&#x3f;" d="M69 109Q69 139 83.50 169.50Q98 200 117.50 230Q137 260 158 288.50Q179 317 193 342Q202 358 211.50 374.50Q221 391 221 410Q221 415 218 419.50Q215 424 209 424L205 424Q201 421 188 412Q175 403 170 401Q159 393 154 381Q149 369 143.50 357.50Q138 346 128.50 338Q119 330 101 330Q74 330 56.50 348.50Q39 367 39 393Q39 424 62 459Q85 494 118.50 523.50Q152 553 190 572Q228 591 258 591Q275 591 287.50 583Q300 575 308.50 562Q317 549 321.50 533.50Q326 518 326 503Q326 483 318 466Q310 449 302 432Q289 406 277 385Q265 364 248 338Q247 336 241.50 329.50Q236 323 230 315.50Q224 308 219 301Q214 294 213 292Q203 278 188 257Q173 236 158.50 213Q144 190 134 168.50Q124 147 124 132Q124 125 129.50 122Q135 119 141.50 116.50Q148 114 153.50 110Q159 106 159 96Q159 87 153 82Q147 77 138.50 74.50Q130 72 120.50 71.50Q111 71 105 71Q88 71 78.50 82.50Q69 94 69 109M131 29Q131 37 139 44.50Q147 52 155 52Q159 52 163.50 48.50Q168 45 172 39.50Q176 34 178.50 28.50Q181 23 181 19Q181 6 170.50 3Q160 0 146 0Q138 0 134.50 10.50Q131 21 131 29Z"  horiz-adv-x="352" vert-adv-y="1000"  />

      
      <glyph glyph-name="uni40" unicode="&#x40;" d="M25 99Q25 146 57.50 191Q90 236 142.50 275.50Q195 315 259.50 348Q324 381 387.50 404.50Q451 428 507.50 441Q564 454 599 454Q625 454 644.50 443.50Q664 433 676.50 416Q689 399 695.50 377Q702 355 702 331Q702 280 678 246Q654 212 610 189Q582 174 554.50 160Q527 146 495 146Q483 146 472 146.50Q461 147 450 151Q448 151 442 154.50Q436 158 434 158Q413 167 393.50 168.50Q374 170 358 173.50Q342 177 332.50 188Q323 199 323 228Q323 251 335 266Q347 281 365 290Q383 299 404 302.50Q425 306 444 306Q462 306 481 305Q500 304 518 298Q528 295 544.50 288.50Q561 282 573 282Q604 282 622 300.50Q640 319 640 349Q640 363 632.50 373Q625 383 614 389.50Q603 396 589.50 399Q576 402 564 402Q534 402 486 392.50Q438 383 383.50 365.50Q329 348 274 323Q219 298 174.50 268Q130 238 102 203.50Q74 169 74 131Q74 93 92.50 65.50Q111 38 139.50 20.50Q168 3 202-5Q236-13 267-13Q315-13 362-7Q409-1 457 7Q469 9 482 16Q495 23 507 23Q512 23 513 20Q514 17 514 12Q514 2 503-6Q492-14 484-16Q424-29 365.50-38Q307-47 247-47Q211-47 172-41Q133-35 100-19Q67-3 46 25.50Q25 54 25 99Z"  horiz-adv-x="713" vert-adv-y="1000"  />

      
      <glyph glyph-name="uni41" unicode="&#x41;" d="M-95-187Q-95-178-85.50-173Q-76-168-71-163Q-28-115 10-61.50Q48-8 87 44Q119 86 152 132.50Q185 179 211 230Q229 264 238.50 288Q248 312 254.50 334Q261 356 266.50 380.50Q272 405 280 441Q284 458 285 474.50Q286 491 289 505Q292 519 299 531.50Q306 544 321 553Q322 553 326 554.50Q330 556 332 556L334 556Q351 556 368 541.50Q385 527 390 507L390 420Q390 419 389.50 411Q389 403 388.50 393Q388 383 387.50 375Q387 367 387 366Q387 364 388.50 357Q390 350 390 349Q390 348 389.50 343Q389 338 388.50 333Q388 328 387.50 323Q387 318 387 317Q386 315 386 311Q386 307 386 305Q386 297 387 294Q388 291 395 291Q400 291 402.50 291.50Q405 292 411 295L531 362Q555 374 584.50 385Q614 396 641 396Q661 396 672 388.50Q683 381 683 355Q683 334 675 317Q667 300 655 286Q643 272 629 259Q615 246 604 233Q601 230 593.50 221Q586 212 577.50 202.50Q569 193 562 184Q555 175 552 171Q549 167 546 159Q543 151 539.50 142.50Q536 134 531.50 128Q527 122 520 122Q510 122 505 130Q500 138 500 149Q500 171 516 195.50Q532 220 554 243.50Q576 267 598 288Q620 309 631 324Q635 331 635 339Q635 341 635 345Q635 349 631 349L597 349Q595 349 587 346Q579 343 568.50 339.50Q558 336 547.50 331.50Q537 327 531 324Q528 322 516.50 316.50Q505 311 491.50 304Q478 297 466 290Q454 283 448 279Q428 267 409 250Q390 233 390 203Q390 191 391.50 171.50Q393 152 397 131.50Q401 111 407 93.50Q413 76 421 69Q427 64 435.50 60.50Q444 57 452.50 53Q461 49 467 42.50Q473 36 473 26Q473-2 450-2Q430-2 413.50 9.50Q397 21 383.50 39Q370 57 359.50 78Q349 99 342 118Q340 123 338.50 134.50Q337 146 334.50 158Q332 170 328.50 179Q325 188 319 188Q311 188 309.50 185.50Q308 183 297 176Q260 151 224 119Q188 87 156 52L132 23Q130 21 122 13Q114 5 112 2L-23-167Q-35-182-49.50-191Q-64-200-81-200L-92-200Q-94-196-94.50-193.50Q-95-191-95-187Z"  horiz-adv-x="546" vert-adv-y="1000"  />

      
      <glyph glyph-name="uni42" unicode="&#x42;" d="M-207-259Q-207-244-200-230Q-193-216-182.50-203.50Q-172-191-160.50-180.50Q-149-170-140-162Q-136-158-127.50-151Q-119-144-110-137Q-101-130-93.50-124.50Q-86-119-84-117Q-78-113-61.50-103Q-45-93-26.50-82.50Q-8-72 8.50-62.50Q25-53 32-50Q41-48 63-38.50Q85-29 109.50-17Q134-5 154 6.50Q174 18 179 23Q189 36 191 53.50Q193 71 195 85Q206 142 216.50 199.50Q227 257 227 315Q227 339 218 351Q209 363 198.50 371.50Q188 380 179.50 389.50Q171 399 171 418Q171 424 179 430Q187 436 197 441.50Q207 447 216 453Q225 459 227 466Q231 478 232.50 493.50Q234 509 238 522Q242 535 251 544Q260 553 279 553Q291 553 299 548Q307 543 313 536Q319 529 324.50 521.50Q330 514 338 508Q351 508 373 506.50Q395 505 415.50 498.50Q436 492 451 479Q466 466 466 443Q466 430 462 418Q458 406 453.50 395.50Q449 385 445.50 375Q442 365 442 356Q442 351 457 348Q472 345 494.50 340.50Q517 336 543.50 328.50Q570 321 592.50 308.50Q615 296 630 276.50Q645 257 645 228Q645 208 637 194Q629 180 617 169.50Q605 159 591 150.50Q577 142 565 132L406 61Q386 57 375 51Q364 45 347 40Q322 33 300 30Q278 27 255 11Q249 6 242.50-7Q236-20 231-35Q226-50 221.50-65Q217-80 215-87L191-174Q189-182 182.50-189Q176-196 167-196Q160-196 155.50-194Q151-192 147-183Q147-181 146.50-173.50Q146-166 146-164Q146-135 155-106Q164-77 164-48Q164-39 162-36.50Q160-34 152-34Q138-34 112-44Q86-54 56-70.50Q26-87-5.50-108Q-37-129-62.50-150.50Q-88-172-104-192.50Q-120-213-120-228Q-120-239-110.50-250Q-101-261-90-261L-88-261Q-79-261-65-260.50Q-51-260-37.50-259.50Q-24-259-14-258Q-4-257-4-257Q-3-257 3-256Q9-255 15.50-253.50Q22-252 28-250.50Q34-249 35-249L44-249Q54-249 62.50-253Q71-257 71-269Q71-287 46-300Q21-313-11.50-321Q-44-329-76.50-332.50Q-109-336-124-336Q-157-336-182-315.50Q-207-295-207-259M263 48Q278 48 291 53Q298 56 316 64Q334 72 354.50 81Q375 90 393 98.50Q411 107 418 110L510 164Q517 168 526 174Q535 180 543 187.50Q551 195 556.50 204Q562 213 562 224Q562 237 552 244Q542 251 528.50 254.50Q515 258 501 258.50Q487 259 479 259Q452 259 428 252Q404 245 378 239Q376 239 370.50 237.50Q365 236 358 234.50Q351 233 345 232Q339 231 338 230Q329 226 317.50 210.50Q306 195 303 185L263 61L263 48M354 423Q354 414 364 405Q374 396 383 396Q393 396 402 403Q411 410 411 421Q411 429 405 434.50Q399 440 390 441Q388 441 382 440Q376 439 370 437Q364 435 359 431Q354 427 354 423Z"  horiz-adv-x="627" vert-adv-y="1000"  />

      
      <glyph glyph-name="uni43" unicode="&#x43;" d="M31 191Q31 243 56.50 292.50Q82 342 121.50 383.50Q161 425 208 457.50Q255 490 297 508Q300 509 304 512Q308 515 312.50 518Q317 521 322 522.50Q327 524 330 523L431 563Q441 567 448 575Q455 583 460.50 591Q466 599 471.50 605Q477 611 486 611Q498 611 501 605.50Q504 600 512 592L566 537Q588 502 588 462Q588 445 580 429.50Q572 414 559 401.50Q546 389 529.50 381.50Q513 374 497 374Q482 374 466 377.50Q450 381 435 381Q421 381 405.50 375.50Q390 370 376 370Q360 370 344 372.50Q328 375 312 381L293 388Q292 389 289.50 390.50Q287 392 286 392Q273 392 264.50 386Q256 380 246 374Q238 369 227.50 365.50Q217 362 209 356Q191 341 169.50 322Q148 303 130 281Q112 259 101 234.50Q90 210 92 184Q94 166 99.50 155Q105 144 114 129Q139 88 184.50 63.50Q230 39 283 25.50Q336 12 389 5.50Q442-1 482-5Q485-5 490-5.50Q495-6 500-7Q505-8 508.50-10.50Q512-13 512-18Q512-24 509-26.50Q506-29 501-31L449-31Q443-31 426.50-29.50Q410-28 391.50-26Q373-24 356.50-22.50Q340-21 333-20Q292-15 240-1.50Q188 12 141.50 37.50Q95 63 63 100.50Q31 138 31 191Z"  horiz-adv-x="591" vert-adv-y="1000"  />

      
      <glyph glyph-name="uni44" unicode="&#x44;" d="M-282-288Q-282-286-280.50-273.50Q-279-261-277-256Q-274-239-255.50-222.50Q-237-206-210-190.50Q-183-175-150.50-160.50Q-118-146-86.50-134Q-55-122-27-112Q1-102 19-95Q22-94 34.50-88Q47-82 61.50-76Q76-70 89-64.50Q102-59 105-58Q118-53 140.50-46Q163-39 186.50-31Q210-23 229.50-13Q249-3 257 8Q258 16 261 35.50Q264 55 267 76.50Q270 98 272.50 117Q275 136 276 144L276 203Q276 238 272.50 264.50Q269 291 266 324Q261 363 253 390.50Q245 418 228 435.50Q211 453 183.50 461.50Q156 470 113 472Q110 472 99.50 471.50Q89 471 77 470.50Q65 470 54.50 469Q44 468 41 468L38 468Q19 468 19 483Q19 487 19 490Q19 493 24 495Q63 503 101.50 506.50Q140 510 181 508Q197 517 209 533Q221 549 233 564.50Q245 580 259.50 591.50Q274 603 295 603Q331 603 355.50 583Q380 563 392 531Q396 519 397.50 512.50Q399 506 400.50 501.50Q402 497 406 492.50Q410 488 419 481Q427 475 438.50 470.50Q450 466 462.50 462Q475 458 486 455Q497 452 504 449Q532 440 572 421Q612 402 649 376.50Q686 351 712.50 320.50Q739 290 742 257Q744 230 732 206.50Q720 183 700.50 163.50Q681 144 658.50 129Q636 114 617 103Q548 71 477 42.50Q406 14 333-9Q319-20 313.50-43Q308-66 302.50-89.50Q297-113 286-131Q275-149 250-149Q244-149 239.50-145.50Q235-142 235-135L235-130Q235-129 237.50-121Q240-113 243-104Q246-95 249-87Q252-79 252-76Q252-76 253-75L253-73Q253-66 249.50-60Q246-54 239-54Q222-54 207-60Q192-66 176-71Q175-73 167.50-74.50Q160-76 159-76Q154-78 142-81.50Q130-85 117.50-89.50Q105-94 93.50-98Q82-102 78-103Q56-111 36.50-121Q17-131-3-139Q-14-143-34.50-150.50Q-55-158-80-168Q-105-178-131.50-190.50Q-158-203-179.50-217Q-201-231-214.50-246.50Q-228-262-228-279Q-228-301-212.50-309.50Q-197-318-179-321Q-161-324-145.50-325Q-130-326-130-333Q-130-340-136-344.50Q-142-349-150.50-351Q-159-353-168-354Q-177-355-182-355Q-192-355-209-349.50Q-226-344-242-334.50Q-258-325-270-313Q-282-301-282-288M387 314Q386 305 382.50 283Q379 261 374.50 235.50Q370 210 366 188Q362 166 360 157Q354 127 343 93Q332 59 332 27L338 27Q341 28 347 30Q353 32 359.50 34Q366 36 371.50 38Q377 40 379 40Q383 41 399 48Q415 55 433 62.50Q451 70 467 77Q483 84 487 86Q504 93 538 109Q572 125 606.50 146Q641 167 667 191Q693 215 693 238Q693 265 670.50 286Q648 307 616.50 321.50Q585 336 552 343.50Q519 351 499 351Q484 351 467.50 350.50Q451 350 436 346.50Q421 343 408 335.50Q395 328 387 314Z"  horiz-adv-x="739" vert-adv-y="1000"  />

      
      <glyph glyph-name="uni45" unicode="&#x45;" d="M40 234Q40 265 51 291Q62 317 66 347Q81 387 94 425Q107 463 126.50 493.50Q146 524 175 544.50Q204 565 251 570L396 570L467 561Q468 561 474 560Q480 559 487.50 557.50Q495 556 502 555Q509 554 512 553Q518 552 527 550.50Q536 549 545 546Q554 543 560 538Q566 533 566 525Q566 517 563 512Q560 507 552 507Q544 507 533.50 510Q523 513 512.50 516.50Q502 520 492 523.50Q482 527 475 528Q470 529 459.50 530.50Q449 532 438.50 533Q428 534 419.50 535Q411 536 408 536Q408 536 401 536Q394 536 384.50 536.50Q375 537 365.50 537Q356 537 350 537Q314 537 284 535Q254 533 219 524Q212 510 199 499.50Q186 489 178 475Q170 461 164 442Q158 423 153.50 402.50Q149 382 146.50 362Q144 342 144 326Q144 317 144.50 309.50Q145 302 153 294Q157 292 169.50 290.50Q182 289 186 289L194 289Q206 291 235.50 294Q265 297 299 300.50Q333 304 363 306.50Q393 309 405 309Q407 310 418.50 310.50Q430 311 445 311Q460 311 475.50 311Q491 311 500 311Q505 311 518.50 311Q532 311 547 311Q562 311 575.50 310.50Q589 310 595 309Q599 309 611 307Q623 305 636 303Q649 301 660.50 299.50Q672 298 677 297Q691 295 705.50 290Q720 285 722 269Q723 265 717.50 259Q712 253 710 252L696 252Q681 252 668 255Q655 258 640 260Q624 261 613 262Q602 263 592 263.50Q582 264 571.50 264Q561 264 547 264Q534 264 505 262Q476 260 440.50 255.50Q405 251 367.50 243Q330 235 299 224Q268 213 248 197.50Q228 182 228 162Q228 153 231.50 143Q235 133 241 124Q247 115 255.50 109Q264 103 273 103L320 103Q386 103 451.50 109.50Q517 116 583 116Q597 116 608.50 116Q620 116 631 115.50Q642 115 654 114Q666 113 682 112Q693 108 697.50 102.50Q702 97 702 86Q702 75 692 67Q682 59 673 54Q613 55 551.50 53.50Q490 52 430 42Q366 31 302 15.50Q238 0 172 0Q125 0 98.50 22.50Q72 45 59 79.50Q46 114 43 155Q40 196 40 234Z"  horiz-adv-x="728" vert-adv-y="1000"  />

      
      <glyph glyph-name="uni46" unicode="&#x46;" d="M164-34Q164 10 168 53Q172 96 172 140L172 160Q161 170 151 170.50Q141 171 129 171Q103 171 77.50 167Q52 163 26 163L1 163Q-7 171-7 179Q-7 192 20 197.50Q47 203 81 209Q115 215 145.50 225.50Q176 236 184 259Q187 269 188 282Q189 295 189.50 309Q190 323 190 335.50Q190 348 191 357Q192 364 194.50 381.50Q197 399 200 418Q203 437 206 454.50Q209 472 211 479Q226 539 262.50 560.50Q299 582 356 582L397 582Q425 575 455.50 557.50Q486 540 511 515.50Q536 491 552 461.50Q568 432 568 401Q568 359 543.50 333Q519 307 477 307Q463 307 449.50 313Q436 319 423 327.50Q410 336 398 346Q386 356 377 365Q374 368 366.50 374.50Q359 381 350.50 389Q342 397 334.50 404.50Q327 412 324 415Q321 418 318 418.50Q315 419 310 419Q288 419 272 399.50Q256 380 245.50 354Q235 328 230 302Q225 276 225 262L225 247Q229 238 233 237Q237 236 243 236Q279 236 314 243.50Q349 251 384 251Q401 251 423.50 250Q446 249 466 243Q486 237 500 224Q514 211 514 186Q514 178 508.50 174Q503 170 496 170Q482 170 470 179.50Q458 189 446 194Q434 199 420.50 198.50Q407 198 395 198Q390 198 376 197.50Q362 197 358 197Q337 189 312 183Q287 177 267 163Q225 133 213.50 88.50Q202 44 202-4Q202-92 225-173.50Q248-255 282-335L298-365Q303-373 310.50-379.50Q318-386 318-395Q318-400 316.50-404.50Q315-409 309-411Q302-413 293-405Q284-397 275-386Q266-375 258.50-363.50Q251-352 248-346Q211-272 187.50-195.50Q164-119 164-34Z"  horiz-adv-x="581" vert-adv-y="1000"  />

      
      <glyph glyph-name="uni47" unicode="&#x47;" d="M24 206Q24 246 38 291Q52 336 77 380.50Q102 425 135.50 466Q169 507 208 538.50Q247 570 290 588.50Q333 607 376 607Q401 607 414 595Q427 583 445 564Q448 560 448.50 557.50Q449 555 449 550Q449 535 442.50 521.50Q436 508 426.50 496Q417 484 406 473.50Q395 463 386 454Q382 450 378.50 449.50Q375 449 371 449Q363 449 361.50 452Q360 455 360 462Q360 474 367.50 482.50Q375 491 383.50 499Q392 507 399.50 515.50Q407 524 407 537Q407 551 396.50 558Q386 565 373 565Q349 565 328 555.50Q307 546 287.50 531.50Q268 517 251.50 499.50Q235 482 220 466Q167 409 136.50 335.50Q106 262 106 185Q106 159 117 139Q128 119 146 105Q164 91 187 83.50Q210 76 234 76Q254 76 279.50 82.50Q305 89 328 102Q351 115 368.50 133Q386 151 390 175Q378 181 365.50 188.50Q353 196 342 205Q331 214 324 226Q317 238 317 253Q317 280 341.50 298Q366 316 399 327.50Q432 339 466 343.50Q500 348 519 348Q530 348 544.50 346Q559 344 564 331L564 329Q564 320 555.50 312.50Q547 305 539 305Q531 305 526 309Q521 313 517 318Q515 318 508.50 318.50Q502 319 500 319Q490 319 472 314.50Q454 310 437 302.50Q420 295 407 284.50Q394 274 394 261Q394 247 413 240Q432 233 461 229Q490 225 523.50 222Q557 219 586 213.50Q615 208 634 198.50Q653 189 653 171Q653 163 652 153.50Q651 144 649 136Q646 128 638 122Q630 116 619.50 110Q609 104 598.50 99Q588 94 580 90Q560 78 542.50 65.50Q525 53 508 35Q488 12 464.50-0.50Q441-13 415-18.50Q389-24 360.50-24.50Q332-25 302-25Q243-25 192-14Q141-3 103.50 23.50Q66 50 45 94.50Q24 139 24 206Z"  horiz-adv-x="662" vert-adv-y="1000"  />

      
      <glyph glyph-name="uni48" unicode="&#x48;" d="M280 32Q272 22 264 20.50Q256 19 245 19L236 19Q233 19 230 20Q200 32 182 60Q164 88 154.50 122Q145 156 142.50 191Q140 226 141 252Q139 260 135 266Q131 272 122 272Q100 272 77.50 263.50Q55 255 33 252L29 252Q22 257 19.50 259.50Q17 262 17 268Q17 273 21 276Q58 299 83.50 306Q109 313 125.50 322.50Q142 332 149.50 353.50Q157 375 157 428L157 458Q155 462 152.50 469.50Q150 477 146 484Q142 491 136.50 496Q131 501 124 501Q114 501 106 495Q98 489 90.50 481.50Q83 474 76.50 468Q70 462 64 462Q54 462 52.50 464Q51 466 51 472Q51 480 53 484.50Q55 489 60 496Q72 509 87 526.50Q102 544 119.50 559.50Q137 575 156 586Q175 597 196 597Q207 597 211 595.50Q215 594 226 585Q243 571 253.50 557Q264 543 272 523Q278 508 281.50 490.50Q285 473 291 458Q297 443 308.50 433Q320 423 342 423Q349 423 350.50 428Q352 433 354 439L370 516Q372 526 377 539.50Q382 553 390.50 566Q399 579 409.50 588Q420 597 433 597Q440 597 454.50 587.50Q469 578 482.50 565.50Q496 553 506.50 540Q517 527 517 521Q517 512 506 512L501 512Q475 544 439 562L436 562Q430 562 423.50 551Q417 540 415 535L408 500L396 411Q394 398 405 390Q416 382 429.50 374Q443 366 454.50 355.50Q466 345 466 326Q466 303 457.50 296Q449 289 436.50 287.50Q424 286 411 284.50Q398 283 389 271Q375 254 368.50 231.50Q362 209 358 187Q356 177 353.50 158.50Q351 140 348.50 121Q346 102 344 86.50Q342 71 342 67L342 33Q342-42 356-115.50Q370-189 396-258Q397-260 399-266.50Q401-273 404-281Q407-289 409-296Q411-303 412-305Q418-321 424-327Q430-333 436-335Q442-337 447.50-339.50Q453-342 459-351L459-365Q459-379 453-386Q447-393 432-393Q412-393 394.50-371Q377-349 363.50-320Q350-291 340.50-261Q331-231 326-216Q313-176 304.50-135.50Q296-95 291-53Q291-50 290.50-43Q290-36 289.50-27.50Q289-19 288.50-11Q288-3 288 1Q287 8 287.50 18.50Q288 29 280 32M226 177Q226 158 231.50 145Q237 132 246 121Q255 110 266 100.50Q277 91 288 79L291 90L319 256L319 259Q319 268 313 270Q307 272 300 272Q257 272 241.50 244.50Q226 217 226 177Z"  horiz-adv-x="468" vert-adv-y="1000"  />

      
      <glyph glyph-name="uni49" unicode="&#x49;" d="M84 33Q84 42 90.50 46.50Q97 51 105.50 58Q114 65 120.50 77Q127 89 127 113Q127 118 126.50 125Q126 132 126 134Q120 182 109.50 228Q99 274 99 324Q99 344 100.50 364.50Q102 385 107 405Q108 408 111 418Q114 428 117 440Q120 452 123 462Q126 472 126 474Q126 475 126.50 480.50Q127 486 127 489Q127 514 114.50 523.50Q102 533 87.50 538Q73 543 60.50 548Q48 553 48 570Q48 581 57.50 584.50Q67 588 75 588Q89 588 101.50 585.50Q114 583 128 583Q148 583 166.50 589Q185 595 205 595Q228 595 243.50 581.50Q259 568 259 543Q259 523 250.50 506.50Q242 490 230.50 475Q219 460 206.50 446Q194 432 185 417Q171 393 166 367.50Q161 342 161 316Q161 300 164 285Q167 270 166 254Q170 230 176 205.50Q182 181 188 156Q194 131 198.50 106Q203 81 204 56Q218 45 232 40.50Q246 36 263 36Q273 36 279.50 40Q286 44 295 44Q306 44 306 34Q306 23 291 14Q276 5 266 5L130 5Q124 5 116.50 6Q109 7 101.50 10Q94 13 89 18.50Q84 24 84 33Z"  horiz-adv-x="315" vert-adv-y="1000"  />

      
      <glyph glyph-name="uni4a" unicode="&#x4a;" d="M-70-403Q-70-398-64-393Q-58-388-53-388L-50-388Q-33-392-18.50-399Q-4-406 10-413Q24-420 39.50-425Q55-430 73-431Q107-433 131-410.50Q155-388 171-355Q187-322 196-286Q205-250 211-226Q212-211 215-174Q218-137 220.50-95.50Q223-54 225-17Q227 20 227 35Q227 36 227 47.50Q227 59 227.50 74Q228 89 228 105Q228 121 228 130Q228 178 228 223.50Q228 269 223 316Q220 352 215.50 373.50Q211 395 201.50 409.50Q192 424 174.50 434.50Q157 445 128 459Q126 459 120.50 462Q115 465 108 469Q101 473 95 476Q89 479 88 479L82 479Q77 479 67 477Q57 475 46.50 471Q36 467 28.50 461.50Q21 456 21 449L21 447L40 427L42 426Q42 425 41.50 425Q41 425 41 424L40 423Q39 421 35 417Q31 413 29 412L28 412Q22 412 13 419.50Q4 427-5 437.50Q-14 448-20.50 458Q-27 468-27 474Q-27 479-23 484Q-19 489-13 493Q-7 497-1 500.50Q5 504 9 507Q11 508 19 512Q27 516 35.50 520.50Q44 525 51.50 529Q59 533 61 534Q76 545 88.50 558Q101 571 114.50 582.50Q128 594 143.50 602Q159 610 179 610Q206 610 232.50 604Q259 598 280.50 585Q302 572 315.50 551Q329 530 329 500Q329 472 317 445Q305 418 298 392Q290 363 288 338Q286 313 282 285L282 281Q282 275 281.50 251.50Q281 228 280.50 201.50Q280 175 279.50 152Q279 129 279 123L279 27Q279 22 278.50 8.50Q278-5 277-20Q276-35 275-48.50Q274-62 274-68Q272-96 269-136Q266-176 258-220.50Q250-265 237-309Q224-353 203.50-388Q183-423 153.50-445Q124-467 84-467Q75-467 50-462.50Q25-458-1.50-449.50Q-28-441-49-429Q-70-417-70-403Z"  horiz-adv-x="392" vert-adv-y="1000"  />

      
      <glyph glyph-name="uni4b" unicode="&#x4b;" d="M482-71Q436-71 391.50-79.50Q347-88 301-88Q277-88 256-83Q235-78 220-66.50Q205-55 196-36.50Q187-18 187 10Q187 43 200.50 72.50Q214 102 229.50 130.50Q245 159 258.50 188.50Q272 218 272 250Q272 264 260 269.50Q248 275 235 275Q220 275 207.50 268Q195 261 184 251Q170 238 153.50 216.50Q137 195 135 175Q130 136 125.50 94.50Q121 53 119 13Q119 10 119 1Q119-8 119-19Q119-30 119-39Q119-48 119-51Q119-62 115-73Q111-84 99-84Q85-84 77.50-75.50Q70-67 66.50-55Q63-43 62.50-30Q62-17 62-8Q62 20 64.50 48.50Q67 77 67 105L67 134Q67 139 66.50 147Q66 155 65 163.50Q64 172 63.50 178.50Q63 185 62 186Q62 187 59 192Q56 197 52.50 202.50Q49 208 46 212.50Q43 217 43 219Q38 226 38 233.50Q38 241 38 248Q38 259 42 268Q46 277 51.50 286Q57 295 61.50 303.50Q66 312 67 323Q67 326 67.50 334.50Q68 343 68.50 352.50Q69 362 69.50 371Q70 380 70 384L70 443L79 500Q80 508 83 520Q86 532 91.50 543Q97 554 105 561.50Q113 569 124 569Q138 569 138 554Q138 534 136 513Q134 492 134 471Q134 460 134 442.50Q134 425 136.50 408Q139 391 146 378.50Q153 366 167 366Q175 366 190.50 372.50Q206 379 225 389.50Q244 400 264 413Q284 426 300 438.50Q316 451 326.50 462.50Q337 474 337 481Q337 485 333.50 486.50Q330 488 325.50 488.50Q321 489 316 488.50Q311 488 309 488Q295 488 284 481.50Q273 475 260 475Q255 475 251 478Q247 481 247 486Q247 499 260 508Q273 517 290 523Q307 529 324 531.50Q341 534 349 534Q351 534 360 533Q369 532 372 532Q388 528 392.50 514.50Q397 501 397 487Q397 468 381 450.50Q365 433 346.50 418Q328 403 312 391.50Q296 380 296 374Q296 367 300.50 361.50Q305 356 311 351.50Q317 347 323 343Q329 339 332 335Q340 325 342 310Q344 295 344 283Q344 247 330 215Q316 183 299.50 152Q283 121 269 89.50Q255 58 255 23Q255 8 266.50-3Q278-14 293-20.50Q308-27 323-30.50Q338-34 346-34L388-34Q420-26 449-25.50Q478-25 501-25Q542-25 576-32Q610-39 641.50-51.50Q673-64 704-81Q735-98 770-119Q779-125 788.50-127.50Q798-130 798-144Q798-149 792.50-151Q787-153 779-152Q777-152 767.50-149Q758-146 755-144Q717-127 686-113.50Q655-100 624-90.50Q593-81 559-76Q525-71 482-71Z"  horiz-adv-x="449" vert-adv-y="1000"  />

      
      <glyph glyph-name="uni4c" unicode="&#x4c;" d="M241-63Q232-28 216-11Q200 6 181 6Q161 6 141.50-14Q122-34 112-69Q105-94 98.50-110Q92-126 85.50-135Q79-144 72.50-147.50Q66-151 60-151Q41-151 32-128.50Q23-106 23-80Q28-51 41-26.50Q54-2 71 23Q85 43 95.50 61Q106 79 115 97.50Q124 116 131.50 136.50Q139 157 148 184Q162 225 172.50 281Q183 337 183 399Q183 446 176.50 491.50Q170 537 159 579Q158 581 158 586Q158 592 161 597Q164 602 169 602Q175 602 180 593Q208 540 219 484.50Q230 429 230 371Q230 320 222.50 274Q215 228 200 180Q192 153 192 139Q192 118 202 106Q212 94 227 83Q246 69 262 48Q278 27 290 5.50Q302-16 309.50-36.50Q317-57 320-71Q331-137 349.50-165Q368-193 405-193Q418-193 427-189Q490-166 548-138.50Q606-111 661-80.50Q716-50 770-18Q824 14 879 47Q886 51 893 51Q903 51 903 43Q903 33 888 25Q818-18 767.50-49.50Q717-81 679-103.50Q641-126 612.50-142Q584-158 557.50-172Q531-186 504-199Q477-212 442-229Q416-241 396-249Q376-257 358-257Q319-257 297.50-234.50Q276-212 265-181Q254-150 250-117Q246-84 241-63Z"  horiz-adv-x="330" vert-adv-y="1000"  />

      
      <glyph glyph-name="uni4d" unicode="&#x4d;" d="M158 196Q158 234 161 270.50Q164 307 162 345Q163 376 167 405.50Q171 435 171 458L171 519Q170 524 167.50 534.50Q165 545 157 545Q152 545 150 540Q148 535 146 532Q130 483 117.50 433.50Q105 384 100 333Q97 307 97.50 280.50Q98 254 92 229L96 87Q96 75 102 62.50Q108 50 115 37.50Q122 25 128 11.50Q134-2 134-15Q134-32 123.50-43Q113-54 96-54Q73-54 60.50-35Q48-16 42 9.50Q36 35 35 61Q34 87 34 101Q34 116 39 159.50Q44 203 52.50 258.50Q61 314 73.50 375Q86 436 101 486.50Q116 537 133.50 570Q151 603 170 603Q190 603 202.50 587.50Q215 572 222 550.50Q229 529 232 506.50Q235 484 237 470Q238 465 239 457.50Q240 450 241.50 442.50Q243 435 244 429.50Q245 424 245 424L250 420Q256 423 261.50 439.50Q267 456 272.50 478.50Q278 501 285 526.50Q292 552 300.50 574Q309 596 320.50 610Q332 624 348 624Q360 624 369 614.50Q378 605 384 592Q390 579 393.50 565.50Q397 552 400 544L400 482Q400 437 397.50 393Q395 349 395 303Q395 294 395 268Q395 242 398 214Q401 186 407.50 163Q414 140 428 137Q441 134 450.50 139.50Q460 145 468 153Q476 161 484 168Q492 175 503 175Q511 175 518 172Q525 169 525 161Q525 145 516.50 130.50Q508 116 494.50 104.50Q481 93 465 86Q449 79 434 79Q402 79 382.50 95.50Q363 112 342 137L337 129L312-33Q310-50 298-64.50Q286-79 267-79Q242-79 224.50-62.50Q207-46 195-20Q183 6 175.50 37.50Q168 69 164 99.50Q160 130 159 156Q158 182 158 196Z"  horiz-adv-x="518" vert-adv-y="1000"  />

      
      <glyph glyph-name="uni4e" unicode="&#x4e;" d="M43-102Q35-72 31.50-48Q28-24 28 7L28 40Q28 44 29.50 54.50Q31 65 32.50 76.50Q34 88 36 98.50Q38 109 39 113Q59 205 85.50 286.50Q112 368 148 456Q150 460 155.50 471.50Q161 483 167.50 496Q174 509 179.50 520Q185 531 188 536Q192 541 200.50 548Q209 555 217 554Q227 552 233 546Q239 540 242 531.50Q245 523 245.50 514Q246 505 246 498Q246 462 239.50 427Q233 392 228 357Q223 312 219.50 270.50Q216 229 216 184L217 182Q219 184 221.50 186.50Q224 189 224 190L349 452Q353 457 354.50 459Q356 461 356 462.50Q356 464 356.50 466Q357 468 360 474Q362 478 367.50 489Q373 500 379 512Q385 524 391 535Q397 546 399 551Q401 554 411 563.50Q421 573 424 575Q426 576 428.50 577.50Q431 579 432 579Q444 579 451 569.50Q458 560 462 546.50Q466 533 467.50 519.50Q469 506 469 499Q469 497 469 492Q469 487 468 485Q466 483 461.50 478.50Q457 474 454 474Q447 474 441 478.50Q435 483 429 488.50Q423 494 417.50 497.50Q412 501 406 499Q401 497 393.50 485Q386 473 384 470L312 320Q310 308 308 305.50Q306 303 301 291Q299 287 293.50 274Q288 261 281.50 245Q275 229 269.50 214.50Q264 200 261 193Q257 183 253.50 171.50Q250 160 239 153L239 135Q239 121 241 107.50Q243 94 243 80Q243 59 232 38.50Q221 18 195 18Q182 18 168 29Q154 40 155 54L160 103Q161 110 158 124.50Q155 139 150 152Q145 165 138.50 170.50Q132 176 126 164Q105 130 93 89Q81 48 83 8Q83 7 85.50-4Q88-15 90-21Q90-23 93-32Q96-41 100-41L129-41Q135-41 136-47.50Q137-54 137-58Q137-85 121-102.50Q105-120 79-120Q65-120 59-117Q53-114 43-102Z"  horiz-adv-x="290" vert-adv-y="1000"  />

      
      <glyph glyph-name="uni4f" unicode="&#x4f;" d="M40 145Q23 200 38.50 257.50Q54 315 86.50 365.50Q119 416 162.50 455.50Q206 495 245 514Q261 522 279 523.50Q297 525 314 530Q355 544 393.50 554.50Q432 565 480 565Q508 565 534.50 553.50Q561 542 583.50 523.50Q606 505 623 480Q640 455 648 427Q662 380 656 339.50Q650 299 631.50 264.50Q613 230 585.50 201Q558 172 530 148Q516 137 498.50 127Q481 117 474 99L408 61Q406 61 403 56Q400 51 398 49Q392 38 390 33.50Q388 29 387.50 25.50Q387 22 386.50 16.50Q386 11 385-4Q380-15 367-20Q354-25 341-25Q330-25 318-27.50Q306-30 294-31.50Q282-33 270.50-32Q259-31 249-25Q234-17 218-16Q202-15 186-7Q136 19 96 56Q56 93 40 145M170 265Q177 241 190.50 232Q204 223 221 220Q238 217 256.50 216Q275 215 293 206Q314 196 333.50 179Q353 162 369 145L373 145Q399 144 419.50 158Q440 172 458 183Q483 199 514 224Q545 249 569 280Q593 311 604.50 347.50Q616 384 604 425Q597 448 581.50 464Q566 480 546 489.50Q526 499 504 503.50Q482 508 463 508Q409 508 359.50 492Q310 476 273 448Q256 431 256.50 419Q257 407 262 383Q264 371 256.50 368Q249 365 238.50 365Q228 365 217.50 365.50Q207 366 203 360Q201 358 198 353.50Q195 349 192 343.50Q189 338 186 333Q183 328 183 326Q181 321 178 314Q175 307 172.50 298.50Q170 290 169 281Q168 272 170 265Z"  horiz-adv-x="672" vert-adv-y="1000"  />

      
      <glyph glyph-name="uni50" unicode="&#x50;" d="M-361-295Q-369-282-369-265Q-369-249-360.50-234Q-352-219-341-208Q-308-173-272-144Q-236-115-198.50-88.50Q-161-62-121.50-37.50Q-82-13-42 12Q-38 17-33 21Q-28 25-23 27L97 92Q112 100 120.50 109Q129 118 133.50 128.50Q138 139 140.50 152.50Q143 166 145 183Q148 196 156.50 228Q165 260 174.50 296.50Q184 333 192.50 365Q201 397 205 410Q211 434 222 467Q233 500 250 531Q267 562 291 583.50Q315 605 348 605Q375 605 399 595.50Q423 586 441 569.50Q459 553 469.50 530Q480 507 480 480Q480 449 472 423.50Q464 398 452 370Q432 325 412.50 289.50Q393 254 370.50 222.50Q348 191 321 161.50Q294 132 260 99Q255 95 255.50 88Q256 81 256 76Q256 57 258 38.50Q260 20 260 1Q260-60 252-120.50Q244-181 212-235Q208-238 201.50-242.50Q195-247 188-247Q164-247 151.50-221.50Q139-196 133-162.50Q127-129 126-94.50Q125-60 125-42L125-28Q125-27 125.50-21.50Q126-16 126.50-10Q127-4 127.50 1.50Q128 7 128 8Q128 11 127 23.50Q126 36 125 39Q123 40 117 42Q111 44 109 44Q97 44 81 38Q65 32 48.50 23.50Q32 15 16.50 6Q1-3-11-9Q-15-11-22-15.50Q-29-20-37.50-24.50Q-46-29-55-32.50Q-64-36-71-36Q-76-39-89-46Q-102-53-116.50-61.50Q-131-70-144-77.50Q-157-85-162-88Q-164-89-171.50-94Q-179-99-188-105.50Q-197-112-205.50-118Q-214-124-218-127Q-220-129-226.50-134Q-233-139-239.50-144.50Q-246-150-252.50-155.50Q-259-161-261-163Q-269-170-279.50-179.50Q-290-189-299-199.50Q-308-210-314.50-222Q-321-234-321-246Q-321-256-314-262.50Q-307-269-297.50-272.50Q-288-276-277-277.50Q-266-279-258-279Q-241-279-227.50-272.50Q-214-266-197-266Q-186-266-173.50-270Q-161-274-161-288Q-161-306-173-317Q-185-328-202-334Q-219-340-237-341.50Q-255-343-268-343L-293-343Q-309-335-329.50-319Q-350-303-361-295M169 161Q169 156 169.50 149.50Q170 143 177 143Q194 143 208.50 155.50Q223 168 236 185Q249 202 260.50 219.50Q272 237 284 247Q288 251 294.50 251.50Q301 252 307 253Q313 254 318.50 255.50Q324 257 327 262Q347 293 359.50 327Q372 361 372 398Q372 431 359 451.50Q346 472 320 493Q319 493 316 493.50Q313 494 312 494Q292 494 277.50 481.50Q263 469 253 451Q243 433 236 413Q229 393 224 378Q221 369 215.50 351.50Q210 334 204 315.50Q198 297 193.50 281.50Q189 266 188 262Q187 257 184 243.50Q181 230 178 215Q175 200 172.50 186.50Q170 173 169 167L169 161M169-131Q171-139 176-147Q181-155 190-155Q194-155 197.50-150.50Q201-146 203.50-140.50Q206-135 207.50-130Q209-125 209-124L216-91L216-44Q216-18 216.50-1.50Q217 15 212 39Q212 43 209.50 49.50Q207 56 202 56Q195 56 190 51Q185 46 181.50 38.50Q178 31 176 23.50Q174 16 173 12Q173 10 172 4Q171-2 170.50-9Q170-16 169.50-22.50Q169-29 169-32L169-131Z"  horiz-adv-x="353" vert-adv-y="1000"  />

      
      <glyph glyph-name="uni51" unicode="&#x51;" d="M941-166Q938-166 933-166Q928-166 913.50-166.50Q899-167 872.50-169Q846-171 801.50-174Q757-177 691.50-181.50Q626-186 534-193Q526-196 502.50-200Q479-204 452-208Q425-212 400.50-215.50Q376-219 366-221Q364-222 354.50-224Q345-226 334-228.50Q323-231 313.50-233Q304-235 302-235L290-235Q257-235 233.50-220Q210-205 195-181.50Q180-158 173-128.50Q166-99 166-70Q166-39 173.50-9Q181 21 181 53Q181 61 170 64.50Q159 68 142 71Q125 74 105 78.50Q85 83 67.50 94Q50 105 37.50 125Q25 145 23 178Q21 210 36 244Q51 278 74.50 309.50Q98 341 125.50 367Q153 393 176 410Q180 413 194 423Q208 433 225 445Q242 457 258.50 468Q275 479 283 484Q296 492 311.50 502.50Q327 513 344 522.50Q361 532 378.50 538.50Q396 545 412 545Q421 545 425 544Q429 543 430 540Q431 537 430.50 531.50Q430 526 430 517Q464 517 498.50 524Q533 531 568 531Q601 531 631 525.50Q661 520 685.50 506Q710 492 728 468.50Q746 445 756 410Q756 409 756.50 405Q757 401 757 399Q757 355 729.50 318.50Q702 282 663 253Q624 224 581 202Q538 180 506 164Q479 151 448 142.50Q417 134 394 117Q389 113 387 111Q385 109 383.50 106.50Q382 104 380.50 101.50Q379 99 375 94L319 34Q302 13 297-15.50Q292-44 292-70Q292-74 291.50-88Q291-102 292-106Q293-123 309-131Q325-139 346-141.50Q367-144 387.50-143.50Q408-143 418-143Q451-143 490.50-138Q530-133 565-129Q663-121 766-120.50Q869-120 965-120Q1037-120 1111-128.50Q1185-137 1257.50-154Q1330-171 1399.50-196Q1469-221 1532-254L1652-328Q1661-333 1669-340.50Q1677-348 1684-356Q1683-361 1678-361Q1673-361 1670-361Q1654-361 1630.50-350Q1607-339 1581.50-324Q1556-309 1531.50-294Q1507-279 1490-272Q1359-218 1221.50-192Q1084-166 941-166M133 220Q133 194 144.50 181Q156 168 182 168Q201 168 212.50 177.50Q224 187 241 192Q278 202 306.50 216Q335 230 371 247Q373 248 378 248Q383 248 384 248Q405 248 418.50 234Q432 220 445 206Q446 205 448.50 205Q451 205 453 205Q458 205 460 205.50Q462 206 468 210Q482 218 498 228.50Q514 239 530 249.50Q546 260 560 270Q574 280 585 289Q596 298 609 310.50Q622 323 633 337.50Q644 352 651.50 368.50Q659 385 659 401Q659 428 642.50 443.50Q626 459 602.50 467Q579 475 553 477.50Q527 480 507 480Q484 480 457.50 475Q431 470 406 460.50Q381 451 359.50 436Q338 421 325 400Q322 396 321.50 389Q321 382 320 375Q319 368 315.50 363Q312 358 304 358Q295 358 290 362.50Q285 367 282 374Q279 381 278.50 389.50Q278 398 278 405Q278 414 278.50 419.50Q279 425 283 433L278 433Q271 427 265 422Q260 417 254.50 412.50Q249 408 246 405Q226 386 206 366Q186 346 169.50 323.50Q153 301 143 275.50Q133 250 133 220Z"  horiz-adv-x="648" vert-adv-y="1000"  />

      
      <glyph glyph-name="uni52" unicode="&#x52;" d="M610-236Q532-221 485.50-195Q439-169 413.50-128.50Q388-88 380-32Q372 24 372 97L372 134Q370 140 365.50 146Q361 152 354 152Q348 152 339 148.50Q330 145 321 140.50Q312 136 304 131.50Q296 127 292 125Q288 122 279 116Q270 110 260 103Q250 96 241 90Q232 84 229 81Q225 71 218.50 49.50Q212 28 203 5.50Q194-17 182.50-34Q171-51 158-51Q142-51 140.50-39.50Q139-28 139-15Q139 3 139.50 15Q140 27 144 46L139 55L135 55Q133 55 131.50 55.50Q130 56 129 56Q115 56 103 50.50Q91 45 77 45Q54 45 39.50 55Q25 65 25 92Q25 124 50 142L144 208Q152 214 156 233.50Q160 253 162 276.50Q164 300 164.50 322.50Q165 345 165 356Q165 363 162.50 371.50Q160 380 152 385L137 385Q124 385 110.50 381.50Q97 378 84 375Q42 365-4 351.50Q-50 338-94 332L-96 332Q-104 332-114 339Q-124 346-124 356L-124 358Q-117 369-104 379Q-91 389-76 397Q-61 405-45 410Q-29 415-15 415Q-10 415-7 411.50Q-4 408-1.50 404Q1 400 4 396.50Q7 393 12 393L17 393Q23 394 38 398Q53 402 69.50 406.50Q86 411 101 414.50Q116 418 122 419Q126 420 133.50 421Q141 422 149 424Q157 426 163 430Q169 434 170 441Q170 446 171.50 458Q173 470 175 483Q177 496 179 508Q181 520 182 525Q183 531 188 548.50Q193 566 200.50 585Q208 604 217 619Q226 634 237 634L288 634Q301 634 311.50 625Q322 616 329 603.50Q336 591 339.50 576.50Q343 562 343 551Q343 539 341 527Q339 515 339 502Q339 481 355 472.50Q371 464 395 461.50Q419 459 447 459Q475 459 499 454.50Q523 450 539 436.50Q555 423 555 395Q555 371 535.50 348.50Q516 326 489.50 306Q463 286 435 269Q407 252 390 239Q384 235 384.50 231.50Q385 228 385 220L385 208Q388 203 392.50 201Q397 199 402 195Q407 191 412.50 183.50Q418 176 423 160Q424 154 424.50 138Q425 122 426 105Q427 88 427.50 72Q428 56 428 50Q430-16 453.50-62Q477-108 516-138.50Q555-169 605.50-185.50Q656-202 712-209L721-209Q730-210 749-212.50Q768-215 788-218Q808-221 825.50-223.50Q843-226 848-226Q852-227 863-230.50Q874-234 873-244Q871-257 860-257Q849-257 839-257Q837-257 826.50-255.50Q816-254 814-253L809-253Q798-252 770-249.50Q742-247 710-244Q678-241 649.50-239Q621-237 610-236M253 283Q253 276 253.50 270.50Q254 265 262 265Q273 265 282.50 272.50Q292 280 300.50 289.50Q309 299 318.50 306.50Q328 314 339 314Q346 314 351.50 310Q357 306 362.50 300.50Q368 295 373 291Q378 287 385 287L390 287Q394 290 406 297.50Q418 305 431 313Q444 321 455.50 329Q467 337 471 340Q483 350 496 362.50Q509 375 509 393Q509 407 494.50 411Q480 415 469 415Q436 415 398.50 410.50Q361 406 328.50 392.50Q296 379 274.50 352.50Q253 326 253 283Z"  horiz-adv-x="490" vert-adv-y="1000"  />

      
      <glyph glyph-name="uni53" unicode="&#x53;" d="M-80 162Q-80 176-67 188Q-54 200-41 200Q-31 200-31 191Q-31 180-37 172.50Q-43 165-43 156Q-43 142-24 124Q-5 106 20.50 88.50Q46 71 71.50 57.50Q97 44 111 38Q134 29 156.50 24Q179 19 203 19Q262 19 292 56.50Q322 94 322 153Q322 174 317 190Q312 206 292 218Q286 220 270 225Q254 230 236 235.50Q218 241 202 245.50Q186 250 179 252Q165 256 147 264Q129 272 113.50 283Q98 294 87.50 309Q77 324 77 342Q77 376 91.50 407Q106 438 129 464.50Q152 491 180 512.50Q208 534 236 550Q237 550 241.50 551.50Q246 553 247 553Q248 554 250.50 555.50Q253 557 254 557L307 572L309 572Q323 572 328.50 561.50Q334 551 334 539Q334 527 333 510Q332 493 327.50 477.50Q323 462 313 451Q303 440 286 440Q276 440 266.50 443.50Q257 447 257 461Q257 467 259 469.50Q261 472 266 478Q269 482 280.50 493Q292 504 295 509Q301 517 300 520Q299 523 299 533Q257 533 235 506Q213 479 213 441Q213 421 221.50 408.50Q230 396 243.50 387.50Q257 379 273 372.50Q289 366 304 357Q352 328 384.50 286.50Q417 245 417 186Q417 145 402 113Q387 81 367 46Q360 32 346.50 18.50Q333 5 316.50-6Q300-17 282.50-24Q265-31 250-31Q223-31 195.50-25Q168-19 142-11Q128-6 105.50 4Q83 14 58.50 28Q34 42 9.50 58.50Q-15 75-35 92.50Q-55 110-67.50 127.50Q-80 145-80 162Z"  horiz-adv-x="446" vert-adv-y="1000"  />

      
      <glyph glyph-name="uni54" unicode="&#x54;" d="M271 30Q271 67 275 105.50Q279 144 285 182.50Q291 221 298 258Q305 295 311 330Q311 331 311.50 335Q312 339 312 340Q312 345 310.50 356Q309 367 301 367L299 367Q298 366 292 364Q286 362 279.50 360Q273 358 267 356Q261 354 260 354Q259 354 256 353.50Q253 353 251 353Q250 353 247.50 353.50Q245 354 244 354Q215 363 192.50 370Q170 377 148 383Q126 389 103 394Q80 399 50 403Q19 414-1 439.50Q-21 465-21 498Q-21 519-10 534.50Q1 550 17.50 561Q34 572 53 579Q72 586 89 591Q152 608 211.50 616Q271 624 337 624Q355 624 367 623.50Q379 623 399 620Q407 614 410 603Q410 600 410 593.50Q410 587 410 579Q410 571 410 564Q410 557 410 554Q410 547 410.50 537.50Q411 528 412 519Q413 508 414 497L426 485Q427 485 431.50 484.50Q436 484 439 484Q442 484 449 484.50Q456 485 458 485Q463 485 477.50 487Q492 489 508 491Q524 493 538.50 495Q553 497 558 497Q573 498 597 498.50Q621 499 646 500.50Q671 502 694.50 506.50Q718 511 732 522L758 522Q795 522 821.50 507.50Q848 493 848 450Q848 425 833 418Q818 411 797 411Q763 411 737 421.50Q711 432 681 444Q678 444 670 444Q662 444 653 444.50Q644 445 635.50 445Q627 445 624 445Q618 445 609 445Q600 445 591 444.50Q582 444 575 444Q568 444 567 444Q559 444 544.50 441.50Q530 439 514 436.50Q498 434 483.50 431.50Q469 429 461 428Q450 425 443 420.50Q436 416 434 403Q435 352 435 296.50Q435 241 429.50 185.50Q424 130 410.50 77Q397 24 370-22Q363-35 350-51Q337-67 320-67Q303-67 293.50-56Q284-45 279-29.50Q274-14 272.50 2.50Q271 19 271 30M93 533Q93 526 96.50 517Q100 508 105.50 499.50Q111 491 118 485.50Q125 480 133 480Q150 480 169 488.50Q188 497 208 497Q237 497 263.50 488.50Q290 480 317 480Q322 480 330 481Q338 482 346 484.50Q354 487 360 492Q366 497 366 505L366 591L363 596L260 596Q251 596 223.50 591.50Q196 587 167 579Q138 571 115.50 559.50Q93 548 93 533M303 7Q308-2 315-2Q322-2 327 5.50Q332 13 334.50 23Q337 33 338 42.50Q339 52 339 56Q340 63 341 74.50Q342 86 343.50 98Q345 110 346 119Q347 128 347 130Q347 131 347.50 146.50Q348 162 348 170Q348 175 347.50 190.50Q347 206 347 211Q345 225 335 231Q330 229 325.50 214.50Q321 200 317.50 179Q314 158 311.50 133.50Q309 109 307 87.50Q305 66 304 49.50Q303 33 303 29L303 7Z"  horiz-adv-x="511" vert-adv-y="1000"  />

      
      <glyph glyph-name="uni55" unicode="&#x55;" d="M328 457Q328 469 326 478.50Q324 488 321 497.50Q318 507 316 517.50Q314 528 314 542Q314 569 325 591.50Q336 614 358 614Q364 614 367 613Q381 608 389 593.50Q397 579 397 557Q397 547 393.50 518.50Q390 490 383 449Q377 413 369 370Q361 327 351 281.50Q341 236 328.50 189Q316 142 301 99Q290 68 279 46Q268 24 254 10.50Q240-3 222.50-9Q205-15 182-15Q153-15 132.50 1.50Q112 18 98.50 44.50Q85 71 76.50 103.50Q68 136 64 168.50Q60 201 58.50 230Q57 259 57 278Q57 298 59 345.50Q61 393 63 471Q63 477 59.50 484.50Q56 492 45 492Q32 490 26 480Q20 470 17 462Q15 454 11.50 453.50Q8 453 8 463Q8 477 10 486Q12 495 15 503Q22 520 34 531Q46 542 60 544Q92 544 102.50 516Q113 488 108 439Q106 420 103 393Q100 366 98.50 335Q97 304 97.50 271Q98 238 103 207Q114 184 120 173.50Q126 163 139 156Q140 154 144 149Q148 144 151.50 138.50Q155 133 157 128Q159 123 158 121Q167 109 176 100Q185 91 191 86Q195 85 203 85Q224 85 241 99.50Q258 114 270.50 139.50Q283 165 292.50 200Q302 235 309 275Q317 318 323.50 367.50Q330 417 328 457Z"  horiz-adv-x="352" vert-adv-y="1000"  />

      
      <glyph glyph-name="uni57" unicode="&#x57;" d="M2 90Q2 94 2.50 103Q3 112 3.50 122.50Q4 133 4.50 142Q5 151 6 154Q19 254 39 352Q59 450 97 543Q98 546 102 555.50Q106 565 108 568Q110 573 117.50 582Q125 591 132 589Q134 589 138 585Q142 581 143 579L144 576Q144 568 141 561.50Q138 555 136 547Q135 544 133 531.50Q131 519 129 504.50Q127 490 125 477.50Q123 465 122 462Q122 460 121 456.50Q120 453 119 451Q117 443 113.50 423.50Q110 404 106 382Q102 360 98.50 340.50Q95 321 94 313Q89 281 82.50 245.50Q76 210 76 177Q76 168 77 156Q78 144 82 133.50Q86 123 93.50 115.50Q101 108 113 108Q127 108 137.50 122Q148 136 155.50 155.50Q163 175 167 195.50Q171 216 172 228Q172 232 172.50 241.50Q173 251 173.50 262Q174 273 174.50 282.50Q175 292 175 295Q177 304 181.50 315Q186 326 193 335Q200 344 208.50 350Q217 356 228 356Q242 356 249 344Q256 332 257 321L264 228Q264 222 268.50 216Q273 210 279 210Q285 210 297.50 237.50Q310 265 329.50 306Q349 347 374.50 394.50Q400 442 432 483Q464 524 502 551.50Q540 579 585 579Q609 579 629.50 567Q650 555 667 537Q684 519 698 498.50Q712 478 724 462Q724 461 725.50 458.50Q727 456 727 455L727 453Q727 446 723.50 443.50Q720 441 715 441L710 441L639 508Q629 518 609.50 524Q590 530 577 530Q540 530 509 508Q478 486 452.50 454.50Q427 423 406.50 387Q386 351 370 324Q367 316 360.50 297.50Q354 279 346.50 258Q339 237 333 218.50Q327 200 324 193L317 161L299 33Q301 29 298.50 25Q296 21 291.50 18Q287 15 282 13.50Q277 12 274 12Q264 12 257 16.50Q250 21 244.50 28Q239 35 234.50 43.50Q230 52 225 59L215 59Q197 59 187 48.50Q177 38 171 23Q165 8 160.50-10.50Q156-29 149.50-44Q143-59 131-69.50Q119-80 99-80Q74-80 56-62.50Q38-45 26-19.50Q14 6 8 34Q2 62 2 83L2 90Z"  horiz-adv-x="399" vert-adv-y="1000"  />

      
      <glyph glyph-name="uni58" unicode="&#x58;" d="M261 195Q267 170 274 141.50Q281 113 286 84.50Q291 56 294.50 29Q298 2 298-21Q298-35 293.50-42.50Q289-50 283-50Q271-50 263.50-26Q256-2 248 27.50Q240 57 229 81Q218 105 199 105Q186 105 164 86.50Q142 68 115 38Q88 8 59-29Q30-66 3-104Q-24-142-47-176Q-70-210-85-233Q-106-266-124.50-293Q-143-320-160-343Q-177-366-195.50-386.50Q-214-407-235-429Q-251-443-264-443Q-269-443-272.50-441Q-276-439-276-434Q-276-428-267-419Q-221-377-185-320.50Q-149-264-109-203Q-82-161-52.50-114Q-23-67 6-21Q35 25 63 67Q91 109 115 142Q135 169 143.50 191Q152 213 152 233Q152 246 148.50 257.50Q145 269 140 279Q114 328 91 377.50Q68 427 68 476Q68 507 86 524Q104 541 126 541Q145 541 160.50 528Q176 515 189.50 496Q203 477 215 454.50Q227 432 239.50 413Q252 394 265.50 381Q279 368 295 368Q303 368 311 371Q319 374 326 381Q379 431 431.50 477.50Q484 524 551 552Q557 554 559 554Q569 554 569 544Q569 531 547 520Q518 505 480.50 473Q443 441 405.50 403Q368 365 335 326.50Q302 288 282 260Q271 246 265.50 234.50Q260 223 260 207Q260 204 260.50 201Q261 198 261 195Z"  horiz-adv-x="362" vert-adv-y="1000"  />

      
      <glyph glyph-name="uni59" unicode="&#x59;" d="M140-148Q145-116 155-90Q162-48 167.50-11Q173 26 179 61Q180 66 180.50 70Q181 74 181 77Q181 99 173.50 115Q166 131 157 147Q148 163 140.50 182Q133 201 133 228Q133 252 139 277.50Q145 303 152.50 328Q160 353 166 378.50Q172 404 172 428Q172 465 162.50 481Q153 497 139 497Q121 497 97 472Q73 447 51.50 410Q30 373 15.50 330.50Q1 288 1 253Q1 239 5 230.50Q9 222 14.50 214.50Q20 207 24 199Q28 191 28 180Q28 162 13 148Q-2 134-19 134Q-56 134-56 190Q-56 232-44 276.50Q-32 321-12.50 363.50Q7 406 31 443.50Q55 481 79 509Q103 537 124 553.50Q145 570 159 570Q197 570 209 549Q221 528 221 472L221 464L221 456Q226 449 228 433.50Q230 418 234 401Q238 384 246 369Q254 354 271 347Q289 382 312.50 426.50Q336 471 368 518.50Q400 566 442 613.50Q484 661 539 702Q546 708 554 708Q564 708 564 698Q564 690 554 681Q522 652 487 609.50Q452 567 419.50 517.50Q387 468 359.50 414.50Q332 361 316 311Q298 255 279 218Q260 181 250 147L208-44Q205-68 201.50-83.50Q198-99 195-111Q192-123 191-133.50Q190-144 191-158Q190-161 188.50-167Q187-173 185-180Q183-187 180.50-193Q178-199 175-201L136-383Q133-398 126.50-413Q120-428 109.50-440.50Q99-453 85.50-461Q72-469 55-469Q40-469 26.50-458Q13-447 13-430Q13-422 18.50-416Q24-410 33-403Q42-396 53-386Q64-376 76-359L91-296L140-148Z"  horiz-adv-x="312" vert-adv-y="1000"  />

      
      <glyph glyph-name="uni5a" unicode="&#x5a;" d="M238 14Q217 14 196 10Q175 6 154 1.50Q133-3 112-7Q91-11 70-11Q49-11 29.50-0.50Q10 10 10 33L10 43Q10 47 11 50Q12 52 19 62Q26 72 28 74Q41 98 51 115.50Q61 133 84 151Q85 152 92.50 157Q100 162 109.50 168.50Q119 175 129 181Q139 187 145 191Q145 192 148.50 194Q152 196 153 196Q156 197 163.50 202Q171 207 179 213Q187 219 195 224.50Q203 230 206 232Q206 233 207 234Q209 236 209 237Q227 248 249.50 260Q272 272 295 284.50Q318 297 339 310.50Q360 324 376 338Q386 347 389 357.50Q392 368 392 381Q392 385 391.50 392Q391 399 385 399L275 399Q265 399 254.50 403.50Q244 408 235 415.50Q226 423 220 433Q214 443 214 453Q214 457 215 464.50Q216 472 218 479Q220 486 224.50 491Q229 496 236 496L238 496Q240 494 243 491Q246 488 246 487Q246 486 244.50 481.50Q243 477 243 475Q242 475 242 470.50Q242 466 242 464Q242 453 251 447Q260 441 270 440Q275 439 288.50 439Q302 439 307 439Q332 439 351 443.50Q370 448 387.50 455.50Q405 463 422.50 473.50Q440 484 461 496Q463 497 471.50 500Q480 503 481 504Q499 512 506 522Q513 532 520.50 541Q528 550 541 556Q554 562 583 562Q586 562 597 561Q608 560 611 560Q621 557 629.50 546Q638 535 644 520.50Q650 506 653 491Q656 476 656 466Q656 422 634 395.50Q612 369 579.50 352.50Q547 336 509.50 325Q472 314 441 301Q360 266 282 221.50Q204 177 133 123Q126 118 115 105.50Q104 93 104 84Q104 78 108.50 75Q113 72 119.50 70.50Q126 69 132 69Q138 69 141 69Q167 69 194.50 73.50Q222 78 249 78Q279 78 304 69.50Q329 61 351.50 47.50Q374 34 395.50 18.50Q417 3 441-11Q496-44 556.50-66Q617-88 683-88Q718-88 758.50-85Q799-82 838-72Q877-62 912-45Q947-28 972 1Q975 4 976.50 10.50Q978 17 979 23.50Q980 30 980 35Q980 40 980 42Q980 45 980.50 51.50Q981 58 981 66Q981 74 980.50 81Q980 88 980 91L984 95L986 95Q993 95 997 88Q1001 81 1002.50 71.50Q1004 62 1004.50 53Q1005 44 1005 40Q1005 28 1004.50 16.50Q1004 5 1001-7Q994-31 970.50-50Q947-69 917.50-83.50Q888-98 857.50-107Q827-116 806-120Q799-122 783.50-124.50Q768-127 751-129.50Q734-132 719.50-134.50Q705-137 700-137Q699-137 685.50-137.50Q672-138 665-138Q595-138 530-116Q465-94 405-59Q385-47 365.50-34Q346-21 326-10.50Q306 0 284.50 7Q263 14 238 14Z"  horiz-adv-x="539" vert-adv-y="1000"  />

      
      <glyph glyph-name="uni5b" unicode="&#x5b;" d="M216-62Q198-62 181.50-67Q165-72 149.50-77.50Q134-83 118-88Q102-93 84-93Q61-93 40-77Q19-61 19-34Q19-29 21-21Q23-13 26-4.50Q29 4 32.50 11.50Q36 19 39 24Q58 86 71.50 141.50Q85 197 93 252Q101 307 103.50 364.50Q106 422 104 488Q107 515 116 529.50Q125 544 152 544Q168 544 184 541.50Q200 539 216 539Q232 539 244.50 543.50Q257 548 268 554Q279 560 288.50 564.50Q298 569 309 569Q317 569 320.50 564Q324 559 324 552Q324 551 323.50 550Q323 549 323 547L323 544Q311 522 283 511Q255 500 226 492Q197 484 175 473Q153 462 153 440Q153 439 153.50 434Q154 429 155 423.50Q156 418 156.50 412.50Q157 407 157 406L157 366Q157 302 147.50 237Q138 172 124 109Q119 86 111.50 62.50Q104 39 104 15Q104 5 111-1Q118-7 126-7Q152-7 178 2Q204 11 230 11Q243 11 264 0.50Q285-10 304.50-25Q324-40 338-57.50Q352-75 352-89Q352-95 347-103Q342-111 335-109Q328-107 320.50-101.50Q313-96 307-93Q282-79 262.50-70.50Q243-62 216-62Z"  horiz-adv-x="354" vert-adv-y="1000"  />

      
      <glyph glyph-name="uni5c" unicode="&#x5c;" d="M0 467Q-7 477-16 493.50Q-25 510-26 523Q-28 546-14.50 568.50Q-1 591 20 592Q25 593 27.50 590Q30 587 35 580Q54 550 80.50 494.50Q107 439 134 376.50Q161 314 184 255.50Q207 197 219 161L286-42Q293-67 299.50-98Q306-129 308-156Q308-162 301-168.50Q294-175 292-167Q282-133 266-83.50Q250-34 234 11Q213 72 184 135.50Q155 199 123.50 258.50Q92 318 60 371.50Q28 425 0 467Z"  horiz-adv-x="304" vert-adv-y="1000"  />

      
      <glyph glyph-name="uni5d" unicode="&#x5d;" d="M-16-112Q-16-106-12.50-100Q-9-94-6-92Q9-80 32-64Q55-48 72-39Q83-33 94.50-31Q106-29 117-25.50Q128-22 137.50-16Q147-10 154 3Q157 58 158.50 112Q160 166 171 220Q175 244 184 270Q193 296 202 322Q211 348 217.50 373Q224 398 224 421Q224 437 218.50 452.50Q213 468 199 475L129 475Q127 475 121.50 475.50Q116 476 110 476.50Q104 477 98.50 478Q93 479 90 480Q85 480 78 482Q71 484 64 488Q57 492 52 497Q47 502 47 510Q47 522 54.50 527.50Q62 533 71.50 534.50Q81 536 91 535.50Q101 535 107 536Q113 536 125 537.50Q137 539 149.50 540Q162 541 172 542.50Q182 544 185 544Q203 547 220.50 553Q238 559 255 564.50Q272 570 289.50 574.50Q307 579 325 579Q348 579 362 557Q376 535 376 510Q376 483 364.50 460Q353 437 337 415Q321 393 304 371.50Q287 350 277 328Q245 262 229 197Q213 132 213 55Q213 38 214.50 20Q216 2 221-14Q224-23 229-34.50Q234-46 234-57Q234-66 229.50-71.50Q225-77 218.50-79.50Q212-82 205-82.50Q198-83 193-83Q185-83 178.50-79.50Q172-76 165-72Q158-68 151.50-64.50Q145-61 137-61Q120-61 101.50-66.50Q83-72 64.50-80Q46-88 29-98Q12-108-2-118L-7-118Q-10-118-13-117.50Q-16-117-16-112Z"  horiz-adv-x="327" vert-adv-y="1000"  />

      
      <glyph glyph-name="uni5e" unicode="&#x5e;" d="M11 362Q11 390 30 421.50Q49 453 75.50 482Q102 511 130.50 535Q159 559 178 573L185 573Q196 573 201.50 566Q207 559 210.50 549Q214 539 216 527.50Q218 516 221 508Q250 445 294.50 408.50Q339 372 395 350L399 338L399 336Q399 326 389.50 323.50Q380 321 375 321Q374 321 370.50 321.50Q367 322 365 322Q360 323 349 326.50Q338 330 325 333.50Q312 337 300.50 340.50Q289 344 285 346Q243 362 214 386Q185 410 165 452Q163 457 160 457Q157 457 152 457Q140 457 121.50 449Q103 441 86 428.50Q69 416 56.50 399.50Q44 383 44 366Q44 360 46.50 355.50Q49 351 52.50 347.50Q56 344 58.50 339.50Q61 335 61 328Q61 320 55 316.50Q49 313 44 313Q30 313 20.50 329.50Q11 346 11 362Z"  horiz-adv-x="393" vert-adv-y="1000"  />

      
      <glyph glyph-name="uni5f" unicode="&#x5f;" d="M380-59Q400-59 427.50-63Q455-67 481-74Q482-79 477-85.50Q472-92 468-92Q442-93 404-93.50Q366-94 324-94.50Q282-95 240-95.50Q198-96 164.50-96Q131-96 109-95.50Q87-95 85-95Q81-95 74-95.50Q67-96 62-96Q54-95 44.50-93.50Q35-92 32-92Q30-90 28-86Q24-78 28-68Q32-58 34-55.50Q36-53 39-52Q48-54 63-54.50Q78-55 82-55L380-59Z"  horiz-adv-x="500" vert-adv-y="1000"  />

      
      <glyph glyph-name="uni60" unicode="&#x60;" d="M60 312Q55 318 53 325.50Q51 333 52 340.50Q53 348 57.50 354Q62 360 71 361Q89 364 99.50 353Q110 342 117 327Q117 326 120 318.50Q123 311 128 300Q133 288 133.50 284Q134 280 136 272Q139 261 143.50 254Q148 247 140 239Q125 241 117 246Q109 251 102 261Q90 277 82.50 287Q75 297 60 312Z"  horiz-adv-x="255" vert-adv-y="1000"  />

      
      <glyph glyph-name="uni61" unicode="&#x61;" d="M133 6L86-16L80-16Q55-16 34.50 0.50Q14 17 14 48Q14 64 23 86.50Q32 109 45.50 129Q59 149 75.50 163Q92 177 107 177Q116 177 116 170L115 167Q104 156 92 142.50Q80 129 74 113Q79 102 91 102Q110 102 121.50 118Q133 134 143 149L143 159Q143 167 141.50 174Q140 181 140 188Q140 194 149 201.50Q158 209 163 209Q169 209 175 199Q181 189 186 176Q191 163 194.50 150Q198 137 199 132Q201 115 202 92Q203 69 207.50 47.50Q212 26 223 11Q234-4 257-4Q265-4 264.50-2.50Q264-1 272-1Q280-1 284.50-7Q289-13 289-21Q289-34 286-41Q283-48 278.50-51Q274-54 267.50-54Q261-54 255-54Q247-53 239.50-53Q232-53 215-48Q205-45 195-36Q185-27 174.50-18Q164-9 154.50-1.50Q145 6 137 6L133 6Z"  horiz-adv-x="269" vert-adv-y="1000"  />

      
      <glyph glyph-name="uni62" unicode="&#x62;" d="M85 35Q85 48 95.50 51Q106 54 118.50 56.50Q131 59 141.50 66Q152 73 152 94Q152 97 150.50 101.50Q149 106 145 108Q143 108 138 108.50Q133 109 131 109Q109 109 101 99Q93 89 89 77.50Q85 66 79.50 56Q74 46 57 46Q46 46 38 54Q30 62 30 73L30 79Q45 121 55.50 161Q66 201 66 245Q66 297 51.50 347Q37 397 8 437.50Q-21 478-63.50 505Q-106 532-162 539Q-164 539-169.50 539.50Q-175 540-181 540.50Q-187 541-193 541.50Q-199 542-200 542Q-205 543-205.50 543.50Q-206 544-206 548Q-206 555-201.50 557.50Q-197 560-190 563L-172 563Q-137 563-105 552.50Q-73 542-43 527Q-4 508 24.50 478Q53 448 72 411.50Q91 375 100.50 333.50Q110 292 110 250Q110 236 108.50 221Q107 206 107 192Q107 185 108.50 183.50Q110 182 118 182Q132 182 146 185.50Q160 189 174 189Q201 189 212 172Q223 155 223 130Q223 112 215.50 93.50Q208 75 197 57.50Q186 40 172 25Q158 10 145-1L133-7L130-7Q113-7 99 5Q85 17 85 35Z"  horiz-adv-x="242" vert-adv-y="1000"  />

      
      <glyph glyph-name="uni63" unicode="&#x63;" d="M15 64Q15 86 39.50 111.50Q64 137 97.50 158.50Q131 180 165.50 194.50Q200 209 220 209Q222 209 227 209Q232 209 236.50 207.50Q241 206 244.50 203.50Q248 201 248 196Q248 185 240 179.50Q232 174 222 174Q215 174 210 178Q205 182 199 182Q188 182 167.50 170.50Q147 159 127 143.50Q107 128 91.50 112.50Q76 97 76 89Q71 79 71 72Q71 64 75.50 60Q80 56 87 54.50Q94 53 100.50 53Q107 53 112 53Q133 53 147 64.50Q161 76 174 90Q187 104 201 115.50Q215 127 236 127Q253 127 260.50 114Q268 101 268 87Q268 65 261.50 52Q255 39 243.50 31.50Q232 24 216.50 20Q201 16 183 12Q160 6 139.50-1Q119-8 93-8Q61-8 38 10.50Q15 29 15 64Z"  horiz-adv-x="276" vert-adv-y="1000"  />

      
      <glyph glyph-name="uni64" unicode="&#x64;" d="M238-286Q238-276 243-270.50Q248-265 254-257Q277-224 277-181Q277-164 273-144.50Q269-125 263-106Q257-87 249.50-69.50Q242-52 235-37L191 56Q189 59 181.50 71Q174 83 167 83Q161 83 155 70Q149 57 140.50 41Q132 25 119 12Q106-1 85-1Q71-1 60.50 5.50Q50 12 42.50 22.50Q35 33 31 46Q27 59 27 71Q27 80 28.50 95Q30 110 33.50 125Q37 140 44 150.50Q51 161 63 161Q74 161 77 151.50Q80 142 88 142Q92 142 96 150Q100 158 103 168Q106 178 108 188Q110 198 110 202L110 211Q91 265 78 320.50Q65 376 65 433Q65 464 69 491.50Q73 519 83.50 543.50Q94 568 112 588.50Q130 609 158 625L162 625Q170 625 175 620Q180 615 180 607Q180 593 170.50 587Q161 581 161 573Q161 555 165 535.50Q169 516 171 497Q173 470 173 443Q173 416 173 389L173 345Q171 319 164.50 294Q158 269 158 243Q158 229 159.50 220Q161 211 167 199Q189 155 214 110Q239 65 260.50 18Q282-29 296-78Q310-127 310-178Q310-189 307.50-208.50Q305-228 299-247.50Q293-267 282.50-281.50Q272-296 256-296Q249-296 243.50-294.50Q238-293 238-286M96 453Q96 447 98 425.50Q100 404 104.50 381Q109 358 116 339.50Q123 321 134 321Q139 321 139 323Q139 325 140 330L144 354L144 416L137 515Q137 516 135.50 521.50Q134 527 132 533Q130 539 127 543.50Q124 548 121 548Q115 548 110 536Q105 524 102 508Q99 492 97.50 476Q96 460 96 453M63 113Q63 111 64 110Q67 107 66 107Q66 106 67.50 105Q69 104 69 103L71 103Q74 103 76.50 107.50Q79 112 80.50 118Q82 124 83 129.50Q84 135 84 137Q75 137 69.50 128.50Q64 120 63 113Z"  horiz-adv-x="270" vert-adv-y="1000"  />

      
      <glyph glyph-name="uni65" unicode="&#x65;" d="M151 152Q150 155 144 163Q138 171 124 171L122 171Q98 169 86 157.50Q74 146 71 127Q86 127 100 127.50Q114 128 125.50 130Q137 132 144 137Q151 142 151 151L151 152M136 215Q170 215 187 202.50Q204 190 206 170L206 162Q206 144 200 133Q194 122 183 116.50Q172 111 157 109Q142 107 124 106L115 105Q102 104 88.50 98.50Q75 93 75 84Q75 80 79 74.50Q83 69 88.50 64Q94 59 100 55.50Q106 52 109 52Q119 52 126 55Q133 58 140 61Q147 66 157 66Q162 66 166.50 65Q171 64 176 60Q179 58 181 52.50Q183 47 183 42Q183 37 179 33Q177 31 163.50 23Q150 15 138 3Q132-3 125-7.50Q118-12 101-12Q91-12 82.50-10.50Q74-9 70-7Q33 10 23 39Q18 54 18 74L18 81Q18 98 22.50 120.50Q27 143 39 163Q51 183 72 198Q93 213 126 215L136 215Z"  horiz-adv-x="217" vert-adv-y="1000"  />

      
      <glyph glyph-name="uni66" unicode="&#x66;" d="M58 227Q53 235 51 247.50Q49 260 37 260Q31 260 25 258.50Q19 257 13 257Q6 257 4 258.50Q2 260 2 266Q2 276 12 280Q17 281 25 283Q33 285 40.50 288.50Q48 292 54 297Q60 302 61 310L85 481Q86 492 93 510Q100 528 110.50 545.50Q121 563 134.50 576Q148 589 162 589Q174 589 181.50 575.50Q189 562 194 545Q199 528 201 510.50Q203 493 203 486Q203 472 198 457Q193 442 185 430L150 372Q149 371 145.50 369.50Q142 368 141 368Q138 368 138 372Q138 376 138 377Q138 388 146.50 399Q155 410 159 418Q166 432 168.50 447Q171 462 171 476Q171 482 170.50 490Q170 498 167.50 505.50Q165 513 159.50 518.50Q154 524 145 524Q131 524 123.50 499Q116 474 113 442Q110 410 109.50 381Q109 352 109 343L109 322Q114 316 123 309Q132 302 141 294.50Q150 287 157 279.50Q164 272 164 264Q164 251 154 243.50Q144 236 132 230Q120 224 110 217Q100 210 100 198L100 128Q100 127 100.50 123.50Q101 120 102 119Q114 96 127.50 72Q141 48 141 22Q141 5 134.50-6Q128-17 111-17Q103-17 95-15Q87-13 82-5Q72 13 65 32Q58 51 58 72L58 227L58 227Z"  horiz-adv-x="168" vert-adv-y="1000"  />

      
      <glyph glyph-name="uni67" unicode="&#x67;" d="M-4-360Q-4-310 7-261Q18-212 35-164Q52-116 74-70Q96-24 117 20Q114 33 101 33Q88 33 74.50 26.50Q61 20 46 20Q32 20 21.50 29Q11 38 11 52Q11 67 22.50 90.50Q34 114 51 136.50Q68 159 87 175Q106 191 121 191Q127 191 128.50 187.50Q130 184 130 179Q130 167 120.50 161Q111 155 99 148.50Q87 142 77.50 130.50Q68 119 68 96Q68 86 71.50 76.50Q75 67 88 67Q97 67 108 72Q119 77 128.50 85Q138 93 145 103Q152 113 152 123Q152 136 150 149.50Q148 163 148 177Q148 183 153.50 188Q159 193 167 196.50Q175 200 183.50 202Q192 204 197 204Q207 204 213.50 199Q220 194 223.50 186Q227 178 228 168.50Q229 159 229 151Q229 149 227.50 138.50Q226 128 226 127Q226 119 233 117Q240 115 245 114Q249 113 262 112Q275 111 280 111Q282 110 282 106Q282 102 282 100Q282 90 272.50 84.50Q263 79 250.50 75Q238 71 226 66.50Q214 62 208 55Q203 31 199 5.50Q195-20 195-44L195-55Q201-99 206-135.50Q211-172 211-218L211-247Q211-252 210-263Q209-274 208-286.50Q207-299 206-310Q205-321 204-325Q204-328 202.50-338.50Q201-349 199-361.50Q197-374 195-385.50Q193-397 192-403Q189-418 182-438.50Q175-459 163.50-477.50Q152-496 136.50-508.50Q121-521 102-521Q78-521 58-503.50Q38-486 24.50-461Q11-436 3.50-408Q-4-380-4-360M27-329Q27-375 39-413.50Q51-452 86-484L91-484Q110-484 120.50-458.50Q131-433 136-399Q141-365 141.50-332.50Q142-300 142-286L142-257L132-145Q130-125 126-102Q122-79 111-60L108-60Q108-60 106-62L105-63Q101-68 95.50-78.50Q90-89 89-91Q89-92 88-96.50Q87-101 86-105.50Q85-110 84-114Q83-118 83-119Q80-129 74-138Q68-147 65-157Q51-199 39-242Q27-285 27-329M176 160Q176 157 178 151Q180 145 185 145Q189 145 189.50 150Q190 155 190 157Q190 162 187.50 164Q185 166 180 170Q176 165 176 160Z"  horiz-adv-x="284" vert-adv-y="1000"  />

      
      <glyph glyph-name="uni68" unicode="&#x68;" d="M-60-266Q-60-256-54.50-245.50Q-49-235-37-235Q-29-235-22.50-241.50Q-16-248-6-248Q5-248 17.50-237.50Q30-227 36-220L87-149Q101-118 114.50-89.50Q128-61 138.50-32.50Q149-4 155 26.50Q161 57 161 93Q161 96 161.50 103.50Q162 111 161 118Q160 125 157.50 130.50Q155 136 149 136Q140 136 136 129Q125 114 117 97Q109 80 102 62Q99 54 97.50 44Q96 34 92.50 24Q89 14 82.50 7.50Q76 1 64 1Q52 1 42 9Q32 17 32 30Q32 47 35.50 64.50Q39 82 41 99Q42 107 44.50 127Q47 147 49.50 169.50Q52 192 54 212Q56 232 57 240L57 249Q61 287 65 323Q69 359 75 397Q76 405 78 417Q80 429 82 442Q84 455 85.50 468Q87 481 87 492Q87 496 85 501.50Q83 507 78 507L75 507L8 489Q-8 492-25 483.50Q-42 475-57 473Q-60 473-66.50 472Q-73 471-79.50 470Q-86 469-91 468Q-96 467-97 467Q-98 467-110 466.50Q-122 466-129 466Q-133 466-145 466.50Q-157 467-161 467Q-166 468-173.50 469.50Q-181 471-188 474Q-195 477-199.50 481.50Q-204 486-204 493Q-204 501-197.50 508.50Q-191 516-181 516Q-172 516-168 507.50Q-164 499-158 494L-135 494Q-78 494-22.50 508.50Q33 523 84 544Q96 553 97.50 569Q99 585 100.50 600.50Q102 616 107 627.50Q112 639 132 639Q142 639 156.50 634.50Q171 630 184 622.50Q197 615 206.50 605Q216 595 216 584Q216 572 209 564Q202 556 191.50 550.50Q181 545 170 541Q159 537 152 534Q146 531 141 523Q136 515 132.50 505Q129 495 127 485.50Q125 476 124 470L99 264Q100 247 98 231.50Q96 216 96 200Q96 197 96.50 192Q97 187 101 187Q110 187 114.50 202Q119 217 124.50 235Q130 253 139 268Q148 283 166 283Q183 283 192.50 264.50Q202 246 206.50 222Q211 198 212 175.50Q213 153 213 145Q213 117 211 87Q209 57 201 31L176-42Q171-55 168.50-57Q166-59 164-69Q138-126 106-172Q74-218 29-260Q17-271 3.50-284Q-10-297-28-297Q-41-297-50.50-288.50Q-60-280-60-266Z"  horiz-adv-x="237" vert-adv-y="1000"  />

      
      <glyph glyph-name="uni69" unicode="&#x69;" d="M26 58Q26 69 32 93.50Q38 118 47 142.50Q56 167 67.50 185.50Q79 204 90 204Q95 204 95.50 201.50Q96 199 96 194L96 188L81 128L84 118Q84 118 87 114.50Q90 111 94 107Q98 103 102 99Q106 95 109 92Q124 78 136 67.50Q148 57 148 36Q148 24 143.50 13.50Q139 3 125 0L105 0Q90 0 76 3Q62 6 51 12.50Q40 19 33 30Q26 41 26 58M67 298Q67 321 84.50 339Q102 357 125 357Q144 357 149 341.50Q154 326 154 312Q154 286 141 275Q128 264 102 264Q88 264 77.50 274Q67 284 67 298Z"  horiz-adv-x="168" vert-adv-y="1000"  />

      
      <glyph glyph-name="uni6a" unicode="&#x6a;" d="M97-228Q97-166 107.50-109Q118-52 129 9L129 18Q129 28 126 38.50Q123 49 110 49L106 49Q102 47 89.50 41.50Q77 36 72 34L58 34Q38 34 24 42.50Q10 51 10 74Q10 90 20.50 106.50Q31 123 49 123Q60 123 68.50 117Q77 111 88 111Q98 111 106 120.50Q114 130 123 142Q132 154 143 163.50Q154 173 170 173Q194 173 209.50 156.50Q225 140 228 117Q228 114 227 107Q226 100 224.50 92.50Q223 85 221.50 78.50Q220 72 219 69Q184 2 159.50-75Q135-152 135-229Q135-245 136.50-269Q138-293 144.50-315Q151-337 164.50-353Q178-369 202-369Q210-369 215-363.50Q220-358 228-358Q233-358 236-360L236-372Q236-391 223.50-394Q211-397 196-397Q161-397 141.50-381Q122-365 112-340Q102-315 99.50-285Q97-255 97-228M126 279Q126 291 131.50 304Q137 317 146.50 328Q156 339 168 346.50Q180 354 192 354Q204 354 208 350Q212 346 214 334Q225 336 238 329.50Q251 323 253 309Q254 297 243.50 286Q233 275 218 266Q203 257 186.50 252Q170 247 160 247Q145 247 135.50 255Q126 263 126 279Z"  horiz-adv-x="240" vert-adv-y="1000"  />

      
      <glyph glyph-name="uni6b" unicode="&#x6b;" d="M55 377Q59 403 60 431.50Q61 460 61 486L61 509Q61 511 60 520Q59 529 58 533Q57 535 55.50 542.50Q54 550 49 550Q44 550 40.50 545.50Q37 541 32 541Q27 541 26.50 543Q26 545 26 549Q26 555 29.50 563.50Q33 572 39 580Q45 588 52.50 593.50Q60 599 68 599Q78 599 84 583Q90 567 93 547Q96 527 96.50 507.50Q97 488 98 481Q101 451 101.50 430.50Q102 410 102 381Q102 378 102 372Q102 366 101.50 359Q101 352 101 345.50Q101 339 101 337Q98 326 95.50 312Q93 298 91 283.50Q89 269 88 255Q87 241 87 231Q112 231 134.50 237.50Q157 244 181 244Q202 244 211 234.50Q220 225 220 206Q220 178 201.50 158Q183 138 164 121Q162 117 157.50 115.50Q153 114 153 109Q153 106 155 103Q172 92 183 85.50Q194 79 211 71Q220 67 236 61.50Q252 56 267.50 49Q283 42 294.50 32.50Q306 23 306 11Q306 2 297 2Q288 2 281 9Q274 16 266 20Q261 21 248.50 24.50Q236 28 222 32Q208 36 195.50 40Q183 44 179 46Q177 46 166 51.50Q155 57 150 60Q148 61 141.50 66Q135 71 133 71Q131 72 129.50 73Q128 74 126 75Q123 76 121 77L84 77Q79 77 78.50 81Q78 85 78 88Q78 95 90 105Q102 115 116 126.50Q130 138 142 150.50Q154 163 154 175Q154 181 149.50 185.50Q145 190 140 190Q131 190 124 186.50Q117 183 110 178Q92 165 81 154.50Q70 144 63.50 132Q57 120 54.50 105Q52 90 52 68Q52 59 52.50 53.50Q53 48 55 37Q57 30 65 30Q70 30 74.50 33.50Q79 37 84 37Q89 37 89.50 34Q90 31 90 27Q90 14 80 4Q70-6 56-6Q41-6 29.50 2.50Q18 11 18 28L18 121L55 377Z"  horiz-adv-x="284" vert-adv-y="1000"  />

      
      <glyph glyph-name="uni6c" unicode="&#x6c;" d="M61 45Q61 120 75.50 188.50Q90 257 108 330Q128 384 146 439Q164 494 185 549Q183 558 187 567Q191 576 198 583.50Q205 591 213.50 595.50Q222 600 231 600Q245 600 253 591Q261 582 264.50 569Q268 556 269 541.50Q270 527 270 517Q270 490 264 462.50Q258 435 246 411L165 245Q147 217 137.50 188.50Q128 160 128 128Q128 111 135 97.50Q142 84 150.50 72Q159 60 166 48.50Q173 37 173 22Q173 2 162-13Q151-28 129-28Q115-28 102.50-21.50Q90-15 81-5Q72 5 66.50 18Q61 31 61 45M219 532Q203 492 192.50 452Q182 412 172 370Q168 356 163 342Q158 328 158 312L165 312Q166 312 169.50 318Q173 324 178 332Q183 340 188 348.50Q193 357 196 363Q211 392 224 428.50Q237 465 237 498Q237 501 237 507Q237 513 235.50 519Q234 525 231.50 530Q229 535 224 535L223 535Q222 535 219 532Z"  horiz-adv-x="200" vert-adv-y="1000"  />

      
      <glyph glyph-name="uni6d" unicode="&#x6d;" d="M65 151Q56 145 50.50 135.50Q45 126 40 117Q35 108 30 101.50Q25 95 17 95Q9 95 9 102Q9 112 15.50 129.50Q22 147 32.50 163.50Q43 180 55.50 192Q68 204 80 204Q98 204 106 192Q114 180 118.50 166Q123 152 127 140Q131 128 140 128Q152 128 161 135.50Q170 143 179 152Q188 161 197 168.50Q206 176 218 176Q236 176 242.50 159.50Q249 143 252 128Q255 126 263 126Q272 126 278.50 130.50Q285 135 291.50 140.50Q298 146 304.50 150.50Q311 155 319 155Q332 155 341 146Q350 137 355 126Q357 116 358 103.50Q359 91 362 80Q365 69 371 61.50Q377 54 390 54Q429 54 460 76L461 77Q461 77 463 79L466 82L479 89Q485 84 485 77Q485 63 470.50 51Q456 39 436.50 30Q417 21 397.50 16Q378 11 368 11Q348 11 338 22Q328 33 322.50 46.50Q317 60 313.50 71Q310 82 303 82Q295 82 288 69.50Q281 57 274 41.50Q267 26 258.50 13.50Q250 1 238 1Q224 1 216.50 8.50Q209 16 204.50 24.50Q200 33 196.50 40.50Q193 48 187 48Q178 48 172.50 39.50Q167 31 161.50 21.50Q156 12 148 3.50Q140-5 127-5Q117-5 111 0Q105 5 99 13Q87 28 86 46.50Q85 65 85.50 84Q86 103 83.50 121Q81 139 65 151Z"  horiz-adv-x="458" vert-adv-y="1000"  />

      
      <glyph glyph-name="uni6e" unicode="&#x6e;" d="M223-39Q222-40 220-40.50Q218-41 210-41Q202-41 194.50-31.50Q187-22 180.50-8.50Q174 5 167.50 20.50Q161 36 157 48Q153 60 145 69Q137 78 123 78Q107 78 97 66Q87 54 77 37Q69 24 61 11Q53-2 45-2Q37-2 33.50 4.50Q30 11 30 21Q30 27 31 33.50Q32 40 33 46Q35 63 35.50 78.50Q36 94 36 109.50Q36 125 37 142Q38 159 42 178Q48 205 67 205Q75 205 75 190Q75 179 81 175Q87 171 95 171Q104 171 112.50 174.50Q121 178 126 183Q135 191 144.50 197.50Q154 204 163 204Q182 204 190 188Q198 172 201 149.50Q204 127 205.50 103Q207 79 213 63Q215 57 218.50 46Q222 35 225 23Q228 11 230 0Q232-11 232-17Q232-32 223-39Z"  horiz-adv-x="246" vert-adv-y="1000"  />

      
      <glyph glyph-name="uni6f" unicode="&#x6f;" d="M27 82Q27 102 35 125Q43 148 56.50 168Q70 188 88.50 202Q107 216 129 219Q137 221 141 211.50Q145 202 145 196Q145 190 142.50 185.50Q140 181 138 175L142 175Q148 175 154 176.50Q160 178 167 178Q194 178 208 155.50Q222 133 222 109Q222 88 210 67Q198 46 179.50 29.50Q161 13 139 3Q117-7 97-7Q78-7 65 1Q52 9 43.50 21.50Q35 34 31 50Q27 66 27 82M78 87Q78 71 85 60.50Q92 50 109 50Q117 50 120 56Q123 62 123 69Q123 77 119.50 82Q116 87 112 93Q108 99 104.50 106.50Q101 114 101 127Q101 132 106.50 143Q112 154 114 159L110 159Q102 159 96 150Q90 141 86 129Q82 117 80 105Q78 93 78 87Z"  horiz-adv-x="250" vert-adv-y="1000"  />

      
      <glyph glyph-name="uni70" unicode="&#x70;" d="M50-251Q50-219 51.50-189.50Q53-160 56-129L65-51L65-45Q65-40 63.50-34Q62-28 56-28L54-28Q-16-77-86-130Q-156-183-211-250Q-213-253-218-259.50Q-223-266-228-274Q-233-282-237.50-289Q-242-296-243-299Q-243-301-244.50-305Q-246-309-246-310L-246-312Q-246-329-231-340Q-216-351-198-358Q-180-365-165-369.50Q-150-374-150-377Q-150-384-159-386Q-168-388-173-388Q-186-388-203-383Q-220-378-235.50-369Q-251-360-261.50-347.50Q-272-335-272-320Q-272-308-267.50-299Q-263-290-257-282Q-251-274-244.50-266Q-238-258-234-247L-151-164L63 12Q70 18 73 29.50Q76 41 77 54.50Q78 68 77.50 80.50Q77 93 77 100L77 110Q71 118 64.50 122.50Q58 127 52.50 131.50Q47 136 43 142Q39 148 39 159Q39 170 45 174Q51 178 59 180Q67 182 74.50 184.50Q82 187 85 194Q87 200 88 209Q89 218 91.50 227Q94 236 98.50 242.50Q103 249 113 249Q115 249 118.50 248.50Q122 248 122 246L122 199Q122 196 125.50 195Q129 194 132 194Q141 194 150.50 196.50Q160 199 170 199Q178 199 190 198Q202 197 214 194Q226 191 235 185Q244 179 247 168L247 150Q247 126 232 106.50Q217 87 197 70Q177 53 155 36Q133 19 120-2Q118-6 115-20.50Q112-35 111-39Q110-45 107.50-61.50Q105-78 103-97Q101-116 99-132.50Q97-149 97-155L97-160Q97-165 95.50-181.50Q94-198 92.50-217Q91-236 90-252.50Q89-269 89-273L89-277Q89-299 90.50-328Q92-357 100-377Q105-387 114-395Q123-403 123-414Q123-419 118.50-424Q114-429 108-429Q101-429 94.50-422.50Q88-416 85-412Q72-395 65-375Q58-355 54.50-334.50Q51-314 50.50-292.50Q50-271 50-251M120 79Q120 74 124 71.50Q128 69 132 69Q132 76 130.50 80.50Q129 85 123 90Q122 89 121 84.50Q120 80 120 79Z"  horiz-adv-x="275" vert-adv-y="1000"  />

      
      <glyph glyph-name="uni71" unicode="&#x71;" d="M17-316Q17-292 26.50-265.50Q36-239 45-219L83-147Q92-131 102.50-113.50Q113-96 122.50-78Q132-60 138-41.50Q144-23 144-3Q144 3 139 13Q134 23 126 23Q111 23 98 16Q85 9 71 9Q51 9 39 20.50Q27 32 27 51Q27 72 34 92Q41 112 52 130Q63 148 77 164.50Q91 181 106 195Q111 198 122 208Q133 218 141 218Q146 218 151 214.50Q156 211 156 206Q156 195 144 189Q132 183 123 183Q102 163 88 142Q74 121 74 91L74 73Q78 68 81.50 67.50Q85 67 90 67Q101 67 107.50 73Q114 79 123 79Q128 79 132 77Q136 75 141 75Q148 75 152 80Q156 85 156 91L156 96Q144 98 132.50 103Q121 108 121 122Q121 131 123 136Q134 147 146.50 159Q159 171 176 171Q191 171 198 160Q205 149 205 135Q205 116 197.50 103.50Q190 91 190 78L190 75Q191 75 194.50 73Q198 71 199 70Q213 58 217.50 46.50Q222 35 222 16Q222-23 203.50-64Q185-105 161-136Q145-156 126.50-177Q108-198 92-220.50Q76-243 65-268Q54-293 54-321Q54-340 64.50-353.50Q75-367 95-367Q115-367 130-358Q145-349 158-335L161-335Q167-335 167-342Q167-355 157.50-365.50Q148-376 134-383.50Q120-391 105-395Q90-399 80-399Q64-399 52-391Q40-383 32.50-371Q25-359 21-344.50Q17-330 17-316Z"  horiz-adv-x="245" vert-adv-y="1000"  />

      
      <glyph glyph-name="uni72" unicode="&#x72;" d="M63 35Q63 39 62.50 50.50Q62 62 62 65Q62 91 69 116Q76 141 76 167Q76 174 68 174Q59 174 51 167.50Q43 161 35.50 153.50Q28 146 22 140Q16 134 12 134Q8 134 7 137.50Q6 141 6 144Q6 152 15 167Q24 182 36.50 197Q49 212 62.50 223Q76 234 84 234Q93 234 98.50 228Q104 222 108 215Q112 208 116 202Q120 196 126 196Q136 196 144.50 204Q153 212 162 213Q172 213 183 207.50Q194 202 194 194L194 148Q194 142 198 138Q202 134 207 130.50Q212 127 216 123.50Q220 120 220 115Q220 108 214.50 105.50Q209 103 203 103Q192 103 180.50 108.50Q169 114 157 114Q153 114 144.50 112.50Q136 111 134 106L115 64L115 59Q115 51 116.50 42.50Q118 34 118 25Q118 12 114.50 4Q111-4 97-4Q80-4 72.50 8Q65 20 63 35Z"  horiz-adv-x="221" vert-adv-y="1000"  />

      
      <glyph glyph-name="uni73" unicode="&#x73;" d="M96-11Q96-4 104.50 3Q113 10 123 17Q133 24 141.50 31Q150 38 150 46Q150 50 146 53.50Q142 57 139 57L66 57Q43 57 29.50 73.50Q16 90 16 112Q16 122 22.50 134Q29 146 33 152Q35 155 46.50 167Q58 179 72 191.50Q86 204 99 214.50Q112 225 116 227L169 247L177 247Q197 247 211 230.50Q225 214 225 195Q225 175 218.50 163.50Q212 152 191 149Q190 148 182 147.50Q174 147 172 146Q163 141 156 132.50Q149 124 138 124Q127 124 117.50 127Q108 130 97 130Q92 130 83.50 125.50Q75 121 75 115L75 96Q75 95 81 92Q87 89 91 88Q102 85 117 85Q132 85 145.50 83.50Q159 82 168.50 76Q178 70 178 53Q178 42 174.50 35.50Q171 29 164 21L119-21Q117-23 115.50-23.50Q114-24 111-24Q106-24 101-20Q96-16 96-11Z"  horiz-adv-x="233" vert-adv-y="1000"  />

      
      <glyph glyph-name="uni74" unicode="&#x74;" d="M67 163Q62 170 51.50 172Q41 174 31 176.50Q21 179 13.50 183Q6 187 6 198Q6 204 9.50 211Q13 218 18 225Q23 232 30 236.50Q37 241 43 241Q56 241 59 231.50Q62 222 64 211L67 211Q74 211 76 214.50Q78 218 80 225L109 354Q114 375 120.50 393Q127 411 144 425L148 425Q153 425 153.50 421.50Q154 418 154 413L154 405L135 302Q133 288 129 273Q125 258 125 244Q125 237 127.50 229Q130 221 139 221Q146 221 162 225Q178 229 197.50 235.50Q217 242 238.50 250Q260 258 277.50 266.50Q295 275 306.50 283Q318 291 318 298Q318 306 316.50 313.50Q315 321 315 329Q315 341 325.50 344.50Q336 348 346 348Q363 348 375.50 338Q388 328 388 309Q388 307 387 302Q386 297 386 296L376 286Q376 286 369.50 282Q363 278 354 272.50Q345 267 336 262Q327 257 321 254Q303 244 283.50 235Q264 226 244 218Q232 213 211.50 208Q191 203 171 195.50Q151 188 136.50 177Q122 166 122 150Q122 124 136 111.50Q150 99 167 91Q184 83 198 74Q212 65 212 46Q212 25 197 13.50Q182 2 162 2Q147 2 133 8.50Q119 15 107.50 25.50Q96 36 87 49Q78 62 74 76Q73 78 72 87.50Q71 97 70 102Q70 105 69.50 114Q69 123 68.50 132.50Q68 142 67.50 151Q67 160 67 163Z"  horiz-adv-x="233" vert-adv-y="1000"  />

      
      <glyph glyph-name="uni75" unicode="&#x75;" d="M33 113Q33 122 34.50 144Q36 166 40.50 188.50Q45 211 53.50 228.50Q62 246 76 246Q83 246 85 233L85 162Q85 153 85 145.50Q85 138 87 132.50Q89 127 93.50 124Q98 121 108 121Q118 121 123.50 128.50Q129 136 134 146Q139 156 145.50 166.50Q152 177 165 182Q169 183 177 186.50Q185 190 190 190Q204 190 208 178Q212 166 212.50 150.50Q213 135 212.50 119Q212 103 218 96Q224 88 233.50 84Q243 80 252.50 76.50Q262 73 269 68.50Q276 64 276 57Q276 52 274.50 46.50Q273 41 267 41L187 41Q181 41 175 36.50Q169 32 166 27L151 3Q146-4 133.50-13.50Q121-23 113-23Q87-23 71.50-8.50Q56 6 47.50 27Q39 48 36 71.50Q33 95 33 113Z"  horiz-adv-x="280" vert-adv-y="1000"  />

      
      <glyph glyph-name="uni76" unicode="&#x76;" d="M10 136L7 136Q0 136 0 144Q0 151 5 159.50Q10 168 17 175.50Q24 183 32 188Q40 193 47 193Q57 193 63.50 187.50Q70 182 74.50 174Q79 166 83.50 158Q88 150 95 146Q97 146 101 145.50Q105 145 107 145Q134 145 157 155Q180 165 200.50 181Q221 197 239 215.50Q257 234 274 252Q275 252 277.50 252.50Q280 253 281 253Q287 253 291.50 248.50Q296 244 296 237Q296 221 283 206.50Q270 192 261 180Q247 160 231 139Q215 118 201 98Q195 88 187.50 70.50Q180 53 171 36Q162 19 150 6.50Q138-6 123-6Q89-6 77.50 12.50Q66 31 62 56Q58 81 54 107.50Q50 134 31 149L28 149L10 136Z"  horiz-adv-x="254" vert-adv-y="1000"  />

      
      <glyph glyph-name="uni77" unicode="&#x77;" d="M3 92Q2 102 16 119Q30 136 49 152Q68 168 88.50 180Q109 192 121 193Q134 194 144 189Q154 184 163 177Q172 170 181.50 165Q191 160 204 161Q223 163 236.50 172Q250 181 268 183Q276 184 280.50 182.50Q285 181 290 172Q291 169 292.50 159.50Q294 150 296 139.50Q298 129 300 119.50Q302 110 303 108Q306 98 320 96Q336 107 347.50 126Q359 145 369.50 166Q380 187 391.50 207.50Q403 228 418 242Q423 247 429 251.50Q435 256 437 257Q439 259 441 259.50Q443 260 449 260Q453 261 455.50 258Q458 255 459 251L459 247Q433 225 415.50 192.50Q398 160 383 126Q368 92 353.50 60.50Q339 29 320 10Q310 0 298-10.50Q286-21 272-23Q255-25 246.50-15Q238-5 232 7Q226 19 219 28.50Q212 38 199 37L198 37Q197 37 193.50 35Q190 33 189 33Q174 21 157 6Q140-9 119-11Q117-11 111.50-11Q106-11 100-10Q94-9 89.50-7Q85-5 85-1L81 49Q81 54 69 56Q57 58 42.50 61.50Q28 65 16 71.50Q4 78 3 92Z"  horiz-adv-x="432" vert-adv-y="1000"  />

      
      </font>
</defs>
</svg>
